g Hay1
v -0.3995632 -0.8852018 0.1517353
v -0.3995632 -0.8852018 -0.08012229
v -0.699161 0.4760256 -1.041496
v -0.9171013 0.3953613 0.4063689
v 0 0.1841602 -0.2838873
v -0.0440381 -0.6866617 -0.2328595
v 1.041496 1.041496 -1.041496
v 0.311487 -0.4881218 -0.1737385
v -0.0440381 -0.6866618 0.1517353
v -0.0440381 -0.6866619 0.3685423
v 0.1580288 -0.4881218 0.2648263
v 0.311487 -0.4881218 0.05317352
v 1.041496 1.041496 1.041496
v 1.041496 1.041496 -0.07140931
v -0.3995632 -0.8852019 0.3685423
v -0.9295031 1.041496 0.7714964
v 0 1.041496 1.041496
v 1.240088 1.963509 -1.20102
v -1.209411 1.81556 -0.3175631
v -0.576494 2.27964 0.9308201
v 0 0.2056193 0.4063688
v 0.8412909 1.566618 0.960277
vn -0.3209825 -0.9444614 0.07044782
vn -0.1892712 -0.8955482 -0.402703
vn -0.2282124 0.0126607 -0.9735291
vn -0.9884444 -0.06390364 0.1374551
vn 0.08810239 0.2846965 -0.9545605
vn 0.4202969 -0.698575 -0.5790885
vn 0.4232258 -0.3514057 -0.8351012
vn 0.4951312 -0.7097443 -0.5011069
vn 0.5293661 -0.8459612 0.06419674
vn 0.2824802 -0.7007434 0.6551058
vn 0.5784763 -0.644565 0.4999011
vn 0.758472 -0.6485467 0.06408931
vn 0.7340901 -0.1000201 0.6716455
vn 0.8169733 0.4743172 0.3279904
vn -0.2948254 -0.7451644 0.5981706
vn -0.925501 0.05496575 0.3747354
vn 0.3487532 0.3441296 0.8717488
vn 0.3219119 0.8052311 -0.4979715
vn -0.4174797 0.9048203 -0.08373159
vn -0.09114711 0.9877351 0.1267739
vn -0.04133465 0.9373413 -0.3459519
vn 0.1352246 0.9462728 0.2937382
g Hay1_0
f 3/3/3 2/2/2 1/1/1
f 4/4/4 3/3/3 1/1/1
f 3/3/3 5/5/5 2/2/2
f 5/5/5 6/6/6 2/2/2
f 5/5/5 7/7/7 6/6/6
f 7/7/7 8/8/8 6/6/6
f 9/9/9 1/1/1 2/2/2
f 6/6/6 9/9/9 2/2/2
f 9/9/9 10/10/10 1/1/1
f 11/11/11 10/10/10 9/9/9
f 12/12/12 11/11/11 9/9/9
f 12/12/12 9/9/9 6/6/6
f 8/8/8 12/12/12 6/6/6
f 13/13/13 11/11/11 12/12/12
f 14/14/14 13/13/13 12/12/12
f 14/14/14 12/12/12 8/8/8
f 7/7/7 14/14/14 8/8/8
f 10/10/10 15/15/15 1/1/1
f 4/4/4 1/1/1 15/15/15
f 16/16/16 15/15/15 10/10/10
f 16/16/16 4/4/4 15/15/15
f 17/17/17 16/16/16 10/10/10
f 17/17/17 10/10/10 11/11/11
f 13/13/13 17/17/17 11/11/11
f 5/5/5 18/18/18 7/7/7
f 7/7/7 18/18/18 14/14/14
f 3/3/3 19/19/19 5/5/5
f 17/17/17 20/20/20 16/16/16
f 21/21/21 20/20/20 17/17/17
f 14/14/14 18/18/18 21/21/21
f 17/17/17 22/22/22 21/21/21
f 21/21/21 22/22/22 14/14/14
f 14/14/14 22/22/22 13/13/13
f 13/13/13 22/22/22 17/17/17
f 21/21/21 19/19/19 4/4/4
f 16/16/16 20/20/20 4/4/4
f 4/4/4 20/20/20 21/21/21
f 4/4/4 19/19/19 3/3/3
f 21/21/21 18/18/18 5/5/5
f 5/5/5 19/19/19 21/21/21
