g Hay4
v 0.09023814 -0.4477786 0.09281869
v 0.003498951 0.6736174 -1.002555
v -0.1356312 0.09471695 -0.1548173
v -0.06834446 1.281685 -1.190441
v 0.3903426 0.7640114 -0.4886695
v 0.5810736 0.1554268 -0.3663143
v 0.2884991 0.7823103 0.5266418
v 0.1370108 0.1731553 0.2103166
v 0.6329203 1.189238 0.1270514
vn -0.09898093 -0.9583649 0.2678424
vn -0.09875652 -0.4564203 -0.8842667
vn -0.9896669 -0.1071287 0.09530307
vn -0.1911379 0.7613969 -0.6194684
vn 0.6262313 0.6848761 -0.3725306
vn 0.6332746 -0.5169663 -0.5759418
vn -0.2276874 0.4544023 0.8612067
vn -0.8856589 0.1914765 0.423019
vn 0.3251384 0.897532 0.2978611
g Hay4_0
f 3/3/3 2/2/2 1/1/1
f 3/3/3 4/4/4 2/2/2
f 2/2/2 5/5/5 1/1/1
f 2/2/2 4/4/4 5/5/5
f 5/5/5 6/6/6 1/1/1
f 6/6/6 7/7/7 1/1/1
f 8/8/8 1/1/1 7/7/7
f 5/5/5 4/4/4 8/8/8
f 8/8/8 4/4/4 3/3/3
f 3/3/3 1/1/1 8/8/8
f 7/7/7 9/9/9 8/8/8
f 8/8/8 9/9/9 5/5/5
f 5/5/5 9/9/9 6/6/6
f 6/6/6 9/9/9 7/7/7
