g Hay5
v 0.4362248 0.8615748 0.3022811
v -0.1016172 1.010694 0.3030369
v 0.1412424 0.9117295 0.02313815
v 0.0855225 1.219492 1.40099
v -0.3389571 0.5361944 0.5266922
v -0.5326381 0.6138754 0.1626912
v 0.51503 0.3443092 0.5882161
v 0.1303334 -0.2734942 0.5696528
v -0.2560981 -0.5706513 0.2600911
v -0.6060792 0.01364748 0.06823703
v -1.332978 -1.367 0.8253223
v -0.8100188 0.0009648956 -0.3934546
v 0.3303269 -1.805363 1.419984
v -0.3505327 -0.8931942 -0.1268196
v -0.7186973 -0.6053095 -0.5482633
v 0.1921533 -0.171369 -0.4081249
v -0.2773586 0.6922824 -0.2106549
v -0.5026745 0.4728686 -0.2984911
v 0.7320187 -0.2978798 0.5053402
v 2.43851 -0.4726837 0.9650565
v 0.5173368 -0.9207602 0.02941411
v -0.09236462 -1.010706 -0.4202926
v 0.2857763 -0.1440689 0.6148725
vn 0.6798304 0.6751846 -0.2862803
vn -0.3733931 0.920253 -0.1170987
vn 0.2585832 0.7694585 -0.5840105
vn -0.03482239 0.5667062 0.8231837
vn -0.7904735 0.1178756 0.6010467
vn -0.8398391 0.518531 0.1606108
vn 0.8083176 0.1583411 0.5670545
vn -0.3052897 0.04474684 0.9512076
vn -0.4534045 -0.1003156 0.8856417
vn -0.7250808 0.3874727 0.5693177
vn -0.642759 -0.5719297 0.5096639
vn -0.7161771 0.3787415 -0.5862126
vn 0.0511918 -0.7106549 0.7016758
vn -0.05406939 -0.9058751 -0.4200794
vn -0.4147552 -0.2439948 -0.8766097
vn 0.4754916 0.06350952 -0.8774248
vn -0.1850701 0.6645941 -0.7239225
vn -0.5462074 0.4971907 -0.6741356
vn 0.3319817 -0.5814251 0.7427874
vn 0.9269474 -0.3169635 0.2007553
vn 0.6972641 -0.5291614 -0.4835399
vn 0.1949928 -0.586358 -0.7862329
vn 0.2553338 -0.06156817 0.9648907
g Hay5_0
f 3/3/3 2/2/2 1/1/1
f 1/1/1 2/2/2 4/4/4
f 2/2/2 5/5/5 4/4/4
f 6/6/6 5/5/5 2/2/2
f 1/1/1 4/4/4 7/7/7
f 4/4/4 5/5/5 8/8/8
f 7/7/7 4/4/4 8/8/8
f 5/5/5 9/9/9 8/8/8
f 9/9/9 5/5/5 10/10/10
f 10/10/10 5/5/5 6/6/6
f 11/11/11 9/9/9 10/10/10
f 11/11/11 10/10/10 12/12/12
f 9/9/9 13/13/13 8/8/8
f 13/13/13 9/9/9 14/14/14
f 9/9/9 11/11/11 14/14/14
f 14/14/14 11/11/11 15/15/15
f 11/11/11 12/12/12 15/15/15
f 15/15/15 12/12/12 16/16/16
f 14/14/14 15/15/15 16/16/16
f 1/1/1 7/7/7 16/16/16
f 3/3/3 1/1/1 16/16/16
f 3/3/3 16/16/16 17/17/17
f 2/2/2 3/3/3 17/17/17
f 6/6/6 2/2/2 17/17/17
f 18/18/18 6/6/6 17/17/17
f 18/18/18 12/12/12 10/10/10
f 6/6/6 18/18/18 10/10/10
f 18/18/18 17/17/17 16/16/16
f 12/12/12 18/18/18 16/16/16
f 16/16/16 19/19/19 13/13/13
f 19/19/19 16/16/16 20/20/20
f 7/7/7 20/20/20 16/16/16
f 21/21/21 16/16/16 13/13/13
f 22/22/22 16/16/16 21/21/21
f 22/22/22 14/14/14 16/16/16
f 13/13/13 14/14/14 22/22/22
f 21/21/21 13/13/13 22/22/22
f 23/23/23 7/7/7 8/8/8
f 23/23/23 8/8/8 13/13/13
f 19/19/19 23/23/23 13/13/13
f 19/19/19 20/20/20 23/23/23
f 20/20/20 7/7/7 23/23/23
