g Sand2
v 0.6648285 0.2275054 -0.005476773
v 0.5104721 0.4870925 -0.1530818
v 0.6320902 0.2275054 -0.2802626
v 0.6409193 -0.2530942 -0.02834016
v 0.6119303 -0.2530942 -0.2591805
v 0.4347453 0.2275054 0.4394763
v 0.416906 -0.2530942 0.4224172
v -0.1096206 0.2275054 0.5838929
v -0.1436573 -0.2530942 0.5513449
v 0.1783181 0.6410284 0.1942649
v -0.153836 0.308639 0.5416115
v 0.1783181 -0.5970313 0.1942649
v -0.153836 -0.2682004 0.5416115
v -0.1690286 -0.6440997 -0.1378891
v -0.5011826 -0.3559033 0.2094575
v -0.5993437 -0.2530942 0.1155899
v -0.4956438 -0.2530942 -0.4502186
v 0.1631255 -0.5036951 -0.4852358
v -0.05537471 -0.2530942 -0.6941791
v 0.2995546 -0.2530941 -0.6279051
v 0.3174303 0.2275054 -0.6465985
v -0.07929072 0.2275054 -0.7170489
v 0.1631255 0.5463936 -0.4852358
v -0.5428622 -0.2530942 0.2530435
v -0.5609496 0.2275054 0.2719582
v -0.6334524 0.2275054 0.08297297
v -0.5011826 0.3993042 0.2094575
v -0.1599854 -0.2530942 0.5480422
v -0.1804912 0.2275054 0.569486
v -0.1690286 0.6860651 -0.1378891
v -0.5134664 0.2275054 -0.4672616
v 0.5104721 -0.4437039 -0.1530818
vn 0.942942 0.2677727 0.1978844
vn 0.6564746 0.7471176 -0.1041936
vn 0.8805623 0.2428695 -0.4069698
vn 0.9213619 -0.3443739 0.1802744
vn 0.8622277 -0.3195968 -0.3929649
vn 0.6040403 0.2855702 0.7440329
vn 0.5817006 -0.3705366 0.7241043
vn 0.05524008 0.2341142 0.9706385
vn 0.03637835 -0.3200807 0.9466916
vn 0.2312112 0.8920066 0.3884141
vn -0.1950202 0.6244004 0.7563671
vn 0.2145176 -0.9026281 0.3731551
vn -0.1990453 -0.6547557 0.7291611
vn -0.2705183 -0.958106 -0.09408934
vn -0.6154809 -0.7107008 0.3407164
vn -0.9318627 -0.3576504 0.06097667
vn -0.7356769 -0.4107034 -0.5386114
vn 0.1786601 -0.8195965 -0.5443732
vn -0.1737766 -0.3804835 -0.9083139
vn 0.4797322 -0.3266476 -0.8143454
vn 0.4907212 0.2521512 -0.8340338
vn -0.1945903 0.3075723 -0.931415
vn 0.1732564 0.8012766 -0.5726587
vn -0.7642846 -0.2757687 0.5829414
vn -0.7835552 0.1924554 0.5907641
vn -0.959648 0.2787325 0.03720299
vn -0.6451082 0.6882313 0.3319234
vn -0.4077626 -0.2710686 0.871924
vn -0.4204319 0.1813143 0.8890231
vn -0.2892031 0.950714 -0.1118236
vn -0.7589743 0.3289021 -0.5619444
vn 0.6304224 -0.7690073 -0.1058079
g Sand2_0
f 3/3/3 2/2/2 1/1/1
f 1/1/1 4/4/4 3/3/3
f 4/4/4 5/5/5 3/3/3
f 1/1/1 6/6/6 4/4/4
f 1/1/1 2/2/2 6/6/6
f 6/6/6 7/7/7 4/4/4
f 6/6/6 8/8/8 7/7/7
f 8/8/8 9/9/9 7/7/7
f 6/6/6 10/10/10 8/8/8
f 2/2/2 10/10/10 6/6/6
f 10/10/10 11/11/11 8/8/8
f 7/7/7 9/9/9 12/12/12
f 9/9/9 13/13/13 12/12/12
f 12/12/12 13/13/13 14/14/14
f 13/13/13 15/15/15 14/14/14
f 14/14/14 15/15/15 16/16/16
f 17/17/17 14/14/14 16/16/16
f 18/18/18 14/14/14 17/17/17
f 12/12/12 14/14/14 18/18/18
f 19/19/19 18/18/18 17/17/17
f 20/20/20 18/18/18 19/19/19
f 21/21/21 20/20/20 19/19/19
f 22/22/22 21/21/21 19/19/19
f 22/22/22 23/23/23 21/21/21
f 16/16/16 15/15/15 24/24/24
f 24/24/24 15/15/15 13/13/13
f 16/16/16 24/24/24 25/25/25
f 26/26/26 16/16/16 25/25/25
f 17/17/17 16/16/16 26/26/26
f 25/25/25 27/27/27 26/26/26
f 25/25/25 24/24/24 28/28/28
f 28/28/28 24/24/24 13/13/13
f 29/29/29 25/25/25 28/28/28
f 29/29/29 28/28/28 9/9/9
f 8/8/8 29/29/29 9/9/9
f 5/5/5 20/20/20 21/21/21
f 3/3/3 5/5/5 21/21/21
f 8/8/8 11/11/11 29/29/29
f 11/11/11 27/27/27 25/25/25
f 29/29/29 11/11/11 25/25/25
f 28/28/28 13/13/13 9/9/9
f 21/21/21 23/23/23 2/2/2
f 3/3/3 21/21/21 2/2/2
f 2/2/2 23/23/23 10/10/10
f 23/23/23 30/30/30 10/10/10
f 30/30/30 27/27/27 11/11/11
f 10/10/10 30/30/30 11/11/11
f 26/26/26 27/27/27 30/30/30
f 31/31/31 30/30/30 23/23/23
f 31/31/31 26/26/26 30/30/30
f 31/31/31 17/17/17 26/26/26
f 19/19/19 17/17/17 31/31/31
f 22/22/22 19/19/19 31/31/31
f 22/22/22 31/31/31 23/23/23
f 4/4/4 32/32/32 5/5/5
f 4/4/4 7/7/7 32/32/32
f 7/7/7 12/12/12 32/32/32
f 5/5/5 32/32/32 20/20/20
f 32/32/32 18/18/18 20/20/20
f 32/32/32 12/12/12 18/18/18
