g Sand4
v 0.1777643 0.002917731 0.2237819
v -0.003303844 0.3279805 0.05063343
v 0.3209398 0.002917731 -0.2884411
v -0.003303844 -0.3396515 0.05063343
v -0.1663305 0.002917731 0.2211169
v -0.325766 0.002917731 -0.2577245
vn 0.6236597 0.01037653 0.7816271
vn -0.01059026 0.9848944 0.1728319
vn 0.7595091 0.009155859 -0.6504323
vn -0.01046791 -0.9851736 0.1712403
vn -0.60553 0.01031546 0.7957557
vn -0.8005651 0.009369223 -0.5991725
g Sand4_0
f 3/3/3 2/2/2 1/1/1
f 1/1/1 4/4/4 3/3/3
f 1/1/1 2/2/2 5/5/5
f 5/5/5 4/4/4 1/1/1
f 6/6/6 2/2/2 3/3/3
f 3/3/3 4/4/4 6/6/6
f 5/5/5 2/2/2 6/6/6
f 6/6/6 4/4/4 5/5/5
