g Sand1
v -0.2871004 -0.9240084 -0.9543917
v -0.6837028 -0.931505 -0.4931603
v 0.1866223 -1.145241 -0.08212472
v -0.5688766 -0.7899641 0.9334181
v -1.061289 -0.0002666417 0.779965
v 0.1082612 -0.7559402 1.221898
v -0.5111829 -0.2343603 1.516843
v -0.6030481 0.2316728 1.456605
v 0.2502902 -0.01253878 1.585387
v 0.09395344 0.7521827 1.228844
v 0.7071607 0.01083124 1.248185
v 0.9048614 -0.7912816 -0.1701223
v 1.213749 0.0143344 -0.1340166
v 0.4473691 -0.8291929 -1.050221
v -0.6007068 0.7828861 0.9087726
v -0.4005234 -0.003812571 -1.410452
v 0.8060336 0.6843563 0.3475906
v 0.8027512 0.8158911 -0.6935781
v 0.2895809 1.153186 -0.118726
v -0.2384482 1.152914 -0.4655239
v -0.08862173 0.8288304 -1.137333
v 0.4772018 0.002384427 -1.389257
v 1.088865 -1.384872E-07 -0.8884074
v -0.7935634 0.7849016 -0.5528812
v -1.090942 0.005061416 -0.6653448
vn -0.2850189 -0.7482088 -0.5991225
vn -0.636901 -0.7433513 -0.2044163
vn 0.1314779 -0.9902346 0.04635907
vn -0.5243869 -0.7639044 0.376123
vn -0.9634831 -0.0144965 0.2673765
vn 0.2372598 -0.7561243 0.6099047
vn -0.4332213 -0.3015306 0.8493519
vn -0.5221642 0.3060226 0.7960494
vn 0.3126718 -0.002899348 0.9498568
vn 0.1928828 0.7490385 0.6338276
vn 0.7879163 -0.005585029 0.615757
vn 0.743327 -0.6682496 0.03012251
vn 0.9958986 0.02426267 0.08716249
vn 0.3531326 -0.6915247 -0.6301515
vn -0.5351192 0.7616613 0.3654033
vn -0.4013221 -0.02719224 -0.9155332
vn 0.7405568 0.6120695 0.2773922
vn 0.6366648 0.681803 -0.3602813
vn 0.251965 0.9665374 0.04815901
vn -0.2137538 0.9599084 -0.1813428
vn -0.08526973 0.6670205 -0.7401437
vn 0.3450795 0.02468995 -0.9382487
vn 0.8533729 0.006134323 -0.5212649
vn -0.739473 0.6155662 -0.2725033
vn -0.9311048 -0.007629755 -0.3646718
g Sand1_0
f 3/3/3 2/2/2 1/1/1
f 4/4/4 2/2/2 3/3/3
f 2/2/2 4/4/4 5/5/5
f 6/6/6 4/4/4 3/3/3
f 4/4/4 6/6/6 7/7/7
f 7/7/7 5/5/5 4/4/4
f 5/5/5 7/7/7 8/8/8
f 7/7/7 6/6/6 9/9/9
f 8/8/8 7/7/7 9/9/9
f 9/9/9 10/10/10 8/8/8
f 11/11/11 10/10/10 9/9/9
f 11/11/11 9/9/9 6/6/6
f 6/6/6 12/12/12 11/11/11
f 12/12/12 6/6/6 3/3/3
f 11/11/11 12/12/12 13/13/13
f 12/12/12 3/3/3 14/14/14
f 3/3/3 1/1/1 14/14/14
f 8/8/8 15/15/15 5/5/5
f 15/15/15 8/8/8 10/10/10
f 1/1/1 16/16/16 14/14/14
f 16/16/16 1/1/1 2/2/2
f 13/13/13 17/17/17 11/11/11
f 17/17/17 10/10/10 11/11/11
f 18/18/18 17/17/17 13/13/13
f 19/19/19 17/17/17 18/18/18
f 19/19/19 15/15/15 10/10/10
f 17/17/17 19/19/19 10/10/10
f 19/19/19 18/18/18 20/20/20
f 19/19/19 20/20/20 15/15/15
f 18/18/18 21/21/21 20/20/20
f 21/21/21 18/18/18 22/22/22
f 22/22/22 16/16/16 21/21/21
f 16/16/16 22/22/22 14/14/14
f 18/18/18 23/23/23 22/22/22
f 23/23/23 14/14/14 22/22/22
f 13/13/13 23/23/23 18/18/18
f 13/13/13 12/12/12 23/23/23
f 12/12/12 14/14/14 23/23/23
f 21/21/21 16/16/16 24/24/24
f 15/15/15 20/20/20 24/24/24
f 21/21/21 24/24/24 20/20/20
f 16/16/16 25/25/25 24/24/24
f 24/24/24 5/5/5 15/15/15
f 25/25/25 5/5/5 24/24/24
f 25/25/25 16/16/16 2/2/2
f 25/25/25 2/2/2 5/5/5
