g Sand3
v 1.045399 0.1193252 -0.1816483
v 0.7557067 -0.09146129 0.1212948
v 0.8269895 0.1193252 0.1894597
v 0.6616157 0.1193252 0.2196895
v 0.7557067 0.3825509 0.1212948
v 0.695371 0.1193252 -0.510998
v 0.4083601 -0.2492646 -0.2108593
v 0.2660537 0.1193252 -0.3469413
v 0.4083601 0.3867822 -0.2108593
v 0.07620601 0.32089 0.1364874
v 0.03445628 0.1193252 -0.5152414
v -0.09642074 0.5999248 -0.3783782
v -0.1283022 0.5999248 -0.05907583
v -0.2711406 0.6719592 -0.1956667
v -0.3922415 0.5999248 -0.06902663
v -0.4388907 0.5999248 -0.3560795
v -0.5836101 0.1193252 0.131095
v -0.2170639 0.1193252 0.4431714
v 0.2220634 0.1193252 0.2759651
v -0.5465326 0.1193252 -0.4590133
v -0.6032946 0.02047496 0.15168
v -0.6268442 -0.3612744 0.1291605
v -0.4593577 -0.3612744 -0.3756513
v -0.2711406 -0.6702752 -0.1956667
v -0.6032946 -0.4045103 0.15168
v -2.487004E-05 -0.3612744 -0.4791831
v -0.6187753 -0.3612744 0.1678687
v -0.2559478 -0.4250735 0.4838342
v -0.2787527 -0.3612744 0.5076818
v -0.255948 0.03494259 0.483834
v -0.2192247 -0.3612744 0.5189511
v 0.2788414 -0.3612744 0.3302597
v 0.3554991 -0.3612744 -0.1555805
v 0.07620601 -0.6797633 0.1364874
vn 0.9681054 0.01672462 -0.2499843
vn 0.3933655 -0.8076063 0.4393584
vn 0.5866376 -0.03573783 0.8090606
vn 0.03283885 0.004883101 0.9994488
vn 0.386132 0.8518282 0.3539645
vn 0.3478917 0.03137404 -0.9370096
vn 0.6897379 -0.5831642 -0.4291634
vn -0.03384617 0.3329072 -0.9423519
vn -0.04397782 0.9614082 -0.2715882
vn 0.1636141 0.8456602 0.5080248
vn 0.2731445 0.237712 -0.9321401
vn 0.4752508 0.6621832 -0.5793532
vn 0.449787 0.7542737 0.4782916
vn -0.01999012 0.9983464 0.05389703
vn -0.5438746 0.6831011 0.4874149
vn -0.5805383 0.6268972 -0.5195913
vn -0.7933578 0.4672861 0.390163
vn -0.09439552 0.5897202 0.802072
vn 0.360303 0.277628 0.8905641
vn -0.7102428 0.1118529 -0.6950137
vn -0.9298877 0.1569294 0.3326892
vn -0.9579117 -0.2822737 -0.05221866
vn -0.6319607 -0.376332 -0.6774953
vn -0.2287735 -0.919733 -0.3189889
vn -0.7041394 -0.6758481 0.2177546
vn 0.2352096 -0.4481403 -0.8624656
vn -0.8566971 -0.189248 0.4798492
vn -0.209853 -0.6906288 0.6920937
vn -0.4670724 -0.1851321 0.864621
vn -0.2334076 0.2360017 0.9433048
vn 0.1202749 -0.2321267 0.9652208
vn 0.7307193 -0.2650585 0.6291211
vn 0.8725417 -0.4012654 -0.2786701
vn 0.3087053 -0.9316095 0.1918459
g Sand3_0
f 3/3/3 2/2/2 1/1/1
f 4/4/4 2/2/2 3/3/3
f 3/3/3 5/5/5 4/4/4
f 1/1/1 5/5/5 3/3/3
f 1/1/1 2/2/2 6/6/6
f 1/1/1 6/6/6 5/5/5
f 2/2/2 7/7/7 6/6/6
f 6/6/6 7/7/7 8/8/8
f 8/8/8 9/9/9 6/6/6
f 6/6/6 9/9/9 5/5/5
f 5/5/5 9/9/9 4/4/4
f 9/9/9 8/8/8 10/10/10
f 9/9/9 10/10/10 4/4/4
f 8/8/8 11/11/11 10/10/10
f 10/10/10 11/11/11 12/12/12
f 13/13/13 10/10/10 12/12/12
f 12/12/12 14/14/14 13/13/13
f 13/13/13 14/14/14 15/15/15
f 13/13/13 15/15/15 10/10/10
f 15/15/15 14/14/14 16/16/16
f 16/16/16 14/14/14 12/12/12
f 15/15/15 17/17/17 10/10/10
f 10/10/10 17/17/17 18/18/18
f 19/19/19 10/10/10 18/18/18
f 4/4/4 10/10/10 19/19/19
f 20/20/20 17/17/17 15/15/15
f 16/16/16 20/20/20 15/15/15
f 12/12/12 11/11/11 20/20/20
f 16/16/16 12/12/12 20/20/20
f 20/20/20 21/21/21 17/17/17
f 22/22/22 21/21/21 20/20/20
f 23/23/23 22/22/22 20/20/20
f 20/20/20 11/11/11 23/23/23
f 23/23/23 24/24/24 22/22/22
f 24/24/24 25/25/25 22/22/22
f 26/26/26 24/24/24 23/23/23
f 11/11/11 26/26/26 23/23/23
f 22/22/22 25/25/25 27/27/27
f 27/27/27 21/21/21 22/22/22
f 27/27/27 25/25/25 28/28/28
f 28/28/28 25/25/25 24/24/24
f 29/29/29 27/27/27 28/28/28
f 30/30/30 21/21/21 27/27/27
f 29/29/29 30/30/30 27/27/27
f 17/17/17 21/21/21 30/30/30
f 18/18/18 17/17/17 30/30/30
f 29/29/29 28/28/28 31/31/31
f 31/31/31 30/30/30 29/29/29
f 18/18/18 30/30/30 32/32/32
f 19/19/19 18/18/18 32/32/32
f 32/32/32 30/30/30 31/31/31
f 32/32/32 33/33/33 19/19/19
f 33/33/33 7/7/7 19/19/19
f 19/19/19 7/7/7 2/2/2
f 4/4/4 19/19/19 2/2/2
f 32/32/32 34/34/34 33/33/33
f 31/31/31 28/28/28 34/34/34
f 32/32/32 31/31/31 34/34/34
f 34/34/34 24/24/24 26/26/26
f 33/33/33 34/34/34 26/26/26
f 34/34/34 28/28/28 24/24/24
f 33/33/33 26/26/26 8/8/8
f 7/7/7 33/33/33 8/8/8
f 8/8/8 26/26/26 11/11/11
