g Snow3
v -1.495672 0.3586349 -0.899124
v -1.424727 -0.1903772 -0.5072657
v -1.762821 0.06265641 -1.06135
v -1.235574 0.3832933 -0.4100647
v -1.36773 0.1073505 -0.04692797
v -1.228561 -0.2156984 0.1941947
v -0.8378539 -0.7262217 -0.1312302
v -1.037844 -0.5969871 -0.8994853
v -0.5683519 -0.7671646 -0.8232182
v -0.5971451 -0.1500214 -1.219088
v -1.191649 -0.4071262 -1.444597
v -1.408301 -0.5141752 -1.031974
v -1.706948 -0.3179137 -1.391475
v -0.9858449 0.3396704 0.2279445
v -0.8243942 -0.05557722 0.522104
v -0.3554774 0.162815 0.5424945
v -0.4324232 -0.4608231 0.4200286
v -0.2214184 -0.8104042 0.03474245
v -0.09071609 -0.8383723 -0.4912391
v -0.7529253 0.5532651 -0.3508665
v -0.3297358 0.570941 0.06389423
v 0.08533823 0.6842267 0.7621253
v 0.04468414 0.7613586 -0.09863549
v 0.352708 0.9366968 0.3345876
v -0.2175181 0.4817951 -0.6930876
v -0.7722171 0.4293446 -0.8405882
v 0.4202929 0.7155108 -0.4899225
v 0.2909497 0.09597285 -0.9657972
v -0.08466038 -0.5495637 -0.9997993
v 0.4939526 -0.4501452 -0.6371219
v 0.7312037 0.8073293 0.7251539
v 0.3890371 -0.5985123 -0.028106
v 0.9946227 -0.4870415 -0.04846487
v 0.802402 0.8334388 0.1704757
v 1.293828 0.4364108 0.4696749
v 0.9161245 -0.01516925 -0.6022149
v -1.066174 0.3854285 -1.251302
v -1.122621 0.06544276 -1.63079
v -1.513257 0.3420854 -1.421502
v -1.506749 -0.06810771 -1.688956
v 0.9071187 0.5901541 -0.3216165
v 0.7201653 -0.484003 0.6183248
v 0.06347004 -0.2383868 0.5293747
v 1.399304 -0.4836605 0.6246179
v 1.363187 -0.1377825 0.04476626
v 1.59864 0.004707315 0.5505765
v 1.655759 0.2008525 1.170695
v 1.837819 -0.1781112 1.084748
v 1.545097 -0.1514436 1.518474
v 1.629508 -0.4765435 1.245737
v 1.191315 -0.4793737 1.226725
v 0.7373875 -0.08534133 1.171622
v 1.099369 -0.1650245 1.461734
v 1.305754 0.1995698 1.430717
v 1.042202 0.4252242 1.103872
v 0.4998966 0.356243 1.160684
v 0.2445666 0.0670865 0.9570972
v -0.07101693 0.2823104 0.8151049
vn -0.5671734 0.7911252 0.2289874
vn -0.8949654 -0.3248732 0.3057684
vn -0.9769313 0.1474705 0.1544595
vn -0.6073704 0.7837431 0.1297998
vn -0.8989473 0.281663 0.3354992
vn -0.7395924 -0.3282601 0.5875783
vn -0.4319644 -0.860114 0.271313
vn -0.2278879 -0.9467098 -0.2276132
vn -0.1041613 -0.8795877 -0.4641938
vn 0.3792617 -0.04886119 -0.9239985
vn 0.1731362 -0.7497686 -0.6386477
vn -0.4765581 -0.8737357 0.09735642
vn -0.7873773 -0.5133106 -0.3413932
vn -0.464535 0.6745386 0.5737637
vn -0.377222 -0.06021513 0.9241633
vn -0.4293703 0.1870198 0.8835523
vn -0.1002545 -0.5830632 0.8062173
vn 0.05731573 -0.9181809 0.3919932
vn 0.2200395 -0.9617037 -0.1634274
vn -0.1844281 0.9824466 -0.02801671
vn -0.3756648 0.9053617 0.1979802
vn -0.4791216 0.6589105 0.5798962
vn -0.3595823 0.9208078 -0.1510417
vn -0.1693176 0.9833729 0.06564568
vn -0.03579949 0.8281493 -0.5593632
vn 0.09698855 0.9053384 -0.4134679
vn 0.148871 0.8041416 -0.5754943
vn 0.3413599 0.2126899 -0.9155525
vn 0.2963108 -0.5499558 -0.7808639
vn 0.5038778 -0.657208 -0.5605221
vn 0.235487 0.880879 0.4106069
vn 0.2054839 -0.9654049 0.1605295
vn 0.4351487 -0.8474383 -0.304128
vn 0.4321785 0.8933195 -0.1232965
vn 0.7277616 0.669714 -0.1478046
vn 0.6843374 -0.05026552 -0.7274309
vn 0.2858731 0.8758696 -0.3887531
vn 0.3777069 0.2279792 -0.8974202
vn -0.4443913 0.7654235 -0.4654495
vn -0.383166 -0.04092597 -0.9227723
vn 0.6242746 0.5942129 -0.5071411
vn -0.2292937 -0.9280701 0.2934458
vn -0.2293194 -0.6452621 0.7287314
vn 0.4746943 -0.8515748 -0.2224538
vn 0.8589288 -0.1563797 -0.4876337
vn 0.9085851 0.1270511 -0.3979084
vn 0.7047207 0.6606814 0.2585899
vn 0.9949995 -0.0968662 0.02435388
vn 0.3888701 -0.09225823 0.9166616
vn 0.4900809 -0.7964654 0.3542084
vn -0.2320397 -0.8625417 0.4496436
vn -0.5048451 -0.3165429 0.8030766
vn -0.4265044 -0.1876314 0.8848098
vn -0.001709075 0.6048905 0.7963068
vn 0.1126457 0.7623653 0.6372678
vn -0.2757702 0.2696664 0.9226217
vn -0.5313666 -0.3583543 0.7676143
vn -0.5821269 0.0007629848 0.8130976
g Snow3_0
f 3/3/3 2/2/2 1/1/1
f 2/2/2 4/4/4 1/1/1
f 5/5/5 4/4/4 2/2/2
f 5/5/5 2/2/2 6/6/6
f 6/6/6 2/2/2 7/7/7
f 7/7/7 2/2/2 8/8/8
f 8/8/8 9/9/9 7/7/7
f 10/10/10 9/9/9 8/8/8
f 8/8/8 11/11/11 10/10/10
f 12/12/12 11/11/11 8/8/8
f 8/8/8 2/2/2 12/12/12
f 12/12/12 2/2/2 3/3/3
f 11/11/11 12/12/12 13/13/13
f 13/13/13 12/12/12 3/3/3
f 6/6/6 14/14/14 5/5/5
f 4/4/4 5/5/5 14/14/14
f 15/15/15 14/14/14 6/6/6
f 15/15/15 16/16/16 14/14/14
f 15/15/15 17/17/17 16/16/16
f 6/6/6 7/7/7 17/17/17
f 15/15/15 6/6/6 17/17/17
f 17/17/17 7/7/7 18/18/18
f 7/7/7 19/19/19 18/18/18
f 9/9/9 19/19/19 7/7/7
f 20/20/20 4/4/4 14/14/14
f 14/14/14 16/16/16 21/21/21
f 21/21/21 20/20/20 14/14/14
f 22/22/22 21/21/21 16/16/16
f 22/22/22 23/23/23 21/21/21
f 23/23/23 22/22/22 24/24/24
f 25/25/25 21/21/21 23/23/23
f 20/20/20 21/21/21 25/25/25
f 20/20/20 25/25/25 26/26/26
f 25/25/25 23/23/23 27/27/27
f 23/23/23 24/24/24 27/27/27
f 28/28/28 25/25/25 27/27/27
f 10/10/10 25/25/25 28/28/28
f 25/25/25 10/10/10 26/26/26
f 29/29/29 10/10/10 28/28/28
f 19/19/19 29/29/29 30/30/30
f 28/28/28 30/30/30 29/29/29
f 22/22/22 31/31/31 24/24/24
f 19/19/19 30/30/30 32/32/32
f 32/32/32 18/18/18 19/19/19
f 32/32/32 30/30/30 33/33/33
f 34/34/34 27/27/27 24/24/24
f 34/34/34 24/24/24 31/31/31
f 31/31/31 35/35/35 34/34/34
f 36/36/36 30/30/30 28/28/28
f 33/33/33 30/30/30 36/36/36
f 28/28/28 27/27/27 36/36/36
f 37/37/37 26/26/26 10/10/10
f 38/38/38 37/37/37 10/10/10
f 38/38/38 39/39/39 37/37/37
f 39/39/39 1/1/1 37/37/37
f 37/37/37 1/1/1 26/26/26
f 39/39/39 3/3/3 1/1/1
f 10/10/10 11/11/11 38/38/38
f 38/38/38 11/11/11 40/40/40
f 38/38/38 40/40/40 39/39/39
f 40/40/40 11/11/11 13/13/13
f 39/39/39 40/40/40 13/13/13
f 3/3/3 39/39/39 13/13/13
f 41/41/41 34/34/34 35/35/35
f 42/42/42 32/32/32 33/33/33
f 32/32/32 42/42/42 43/43/43
f 44/44/44 42/42/42 33/33/33
f 45/45/45 44/44/44 33/33/33
f 45/45/45 36/36/36 41/41/41
f 35/35/35 45/45/45 41/41/41
f 46/46/46 45/45/45 35/35/35
f 46/46/46 44/44/44 45/45/45
f 35/35/35 47/47/47 46/46/46
f 47/47/47 48/48/48 46/46/46
f 46/46/46 48/48/48 44/44/44
f 49/49/49 48/48/48 47/47/47
f 48/48/48 49/49/49 50/50/50
f 44/44/44 48/48/48 50/50/50
f 51/51/51 42/42/42 44/44/44
f 51/51/51 44/44/44 50/50/50
f 51/51/51 50/50/50 49/49/49
f 52/52/52 42/42/42 51/51/51
f 51/51/51 53/53/53 52/52/52
f 49/49/49 53/53/53 51/51/51
f 53/53/53 49/49/49 54/54/54
f 53/53/53 54/54/54 52/52/52
f 49/49/49 47/47/47 54/54/54
f 55/55/55 47/47/47 35/35/35
f 55/55/55 54/54/54 47/47/47
f 54/54/54 55/55/55 52/52/52
f 56/56/56 52/52/52 55/55/55
f 56/56/56 57/57/57 52/52/52
f 57/57/57 58/58/58 43/43/43
f 57/57/57 56/56/56 22/22/22
f 57/57/57 22/22/22 58/58/58
f 52/52/52 57/57/57 42/42/42
f 42/42/42 57/57/57 43/43/43
f 16/16/16 43/43/43 58/58/58
f 22/22/22 16/16/16 58/58/58
f 17/17/17 43/43/43 16/16/16
f 56/56/56 55/55/55 31/31/31
f 22/22/22 56/56/56 31/31/31
f 43/43/43 17/17/17 18/18/18
f 32/32/32 43/43/43 18/18/18
f 55/55/55 35/35/35 31/31/31
f 26/26/26 4/4/4 20/20/20
f 1/1/1 4/4/4 26/26/26
f 29/29/29 19/19/19 9/9/9
f 29/29/29 9/9/9 10/10/10
f 27/27/27 34/34/34 41/41/41
f 27/27/27 41/41/41 36/36/36
f 36/36/36 45/45/45 33/33/33
