g Snow4
v -0.1663001 0.3048715 -0.973647
v 0.5474824 -0.7163588 -0.4309621
v 0.2411461 0.4151665 -0.9592773
v -0.2914408 0.8563278 -0.8417152
v 0.3589829 0.9907737 -0.6436334
v -0.6664909 0.5135696 -0.6095036
v -0.0643774 1.208374 -0.4263385
v -0.6378561 0.9631775 -0.2953396
v -0.7613192 -0.007701723 -0.3318888
v -0.5118918 0.6996222 0.3077309
v -0.623191 -0.1299459 0.1939501
v -0.03703738 -0.1276668 0.7457469
v -0.03707278 0.8059185 0.4555919
v 0.5125797 -0.06614361 0.7716972
v 0.1917787 -0.5855284 0.7386808
v -0.2857067 1.139886 0.00821197
v -0.3320402 -0.183125 -0.6783257
v -1.123369 -0.3686936 -0.3144054
v -0.3261047 -0.5675531 0.409673
v -0.2040794 -0.8974575 0.1845186
v 0.2077503 1.181402 -0.06866316
v 0.9020333 -0.2887101 0.5909656
v 1.217637 0.4785953 0.4803229
v 1.490111 0.1871533 0.1868375
v 0.3837141 -0.9841576 0.3037567
v 0.8078371 -0.7235463 0.276787
v 0.6975095 -0.8375517 -0.1306017
v -0.07939223 -0.918332 -0.3072653
v -0.0287869 -0.4937601 -0.6066666
v -0.5871978 -0.9827821 -0.6697115
v -0.8363469 -1.147459 -0.4967425
v -0.6282192 -1.11532 0.1321024
v -1.042607 -1.034132 -0.05251887
v -1.032357 -0.6138409 0.1910057
v -1.18406 -0.8238253 -0.4257829
v -0.9072674 -0.5420991 -0.6976268
v 1.303617 0.09301144 -0.2257259
v 0.7796237 0.4379444 -0.5129178
v 1.350043 0.4359889 -0.1811024
v 0.7720385 0.7735651 -0.1409213
v 1.186333 0.6917964 0.1613586
v 0.7495697 0.6665119 0.3659127
vn -0.2507755 -0.1414255 -0.9576589
vn 0.3491084 -0.6335467 -0.690465
vn 0.3083344 0.04629746 -0.9501508
vn -0.3260356 0.5041757 -0.7996922
vn 0.4575444 0.6756958 -0.5780038
vn -0.8416301 0.07736637 -0.5344841
vn -0.06671523 0.9528436 -0.2960374
vn -0.8107085 0.5817544 -0.06567703
vn -0.8940692 0.3700491 -0.2523964
vn -0.7025591 0.3391328 0.6256194
vn -0.7374349 0.2239497 0.6372098
vn -0.3712686 0.02392721 0.9282172
vn -0.0989121 0.571682 0.8144913
vn 0.1597349 0.08978602 0.9830683
vn -0.07285039 -0.4686597 0.8803697
vn -0.3343387 0.8693721 0.3638814
vn -0.3330521 -0.1215871 -0.9350363
vn -0.8707713 0.4757319 -0.1242433
vn -0.422325 -0.2978982 0.8560948
vn 0.02410982 -0.8718295 0.4892158
vn 0.285291 0.9311937 0.2269083
vn 0.5397713 -0.3496336 0.7657697
vn 0.5664706 0.4216865 0.7080195
vn 0.9742177 -0.09158659 0.2061843
vn 0.1721896 -0.9310203 0.321795
vn 0.6523194 -0.6894614 0.314837
vn 0.4710343 -0.8260953 -0.3093432
vn 0.2803182 -0.8819114 -0.3790171
vn 0.1483832 -0.3947016 -0.9067486
vn 0.1143858 -0.5571575 -0.822491
vn -0.2457104 -0.8616191 -0.4441159
vn -0.01699904 -0.8388736 0.5440608
vn -0.7038405 -0.6202782 0.3462131
vn -0.7063034 0.06387646 0.7050215
vn -0.9047349 -0.2452199 -0.348313
vn -0.428731 0.154182 -0.8901784
vn 0.771526 -0.2722925 -0.5749822
vn 0.5999725 0.3966551 -0.6947645
vn 0.7685585 0.4120362 -0.4894323
vn 0.5337816 0.8236231 -0.1916304
vn 0.5073891 0.8544585 0.1116103
vn 0.2060046 0.7370998 0.6436195
g Snow4_0
f 3/3/3 2/2/2 1/1/1
f 3/3/3 1/1/1 4/4/4
f 3/3/3 4/4/4 5/5/5
f 1/1/1 6/6/6 4/4/4
f 4/4/4 7/7/7 5/5/5
f 4/4/4 8/8/8 7/7/7
f 8/8/8 4/4/4 6/6/6
f 8/8/8 6/6/6 9/9/9
f 1/1/1 9/9/9 6/6/6
f 9/9/9 10/10/10 8/8/8
f 10/10/10 9/9/9 11/11/11
f 12/12/12 10/10/10 11/11/11
f 12/12/12 13/13/13 10/10/10
f 12/12/12 14/14/14 13/13/13
f 12/12/12 15/15/15 14/14/14
f 7/7/7 8/8/8 16/16/16
f 16/16/16 10/10/10 13/13/13
f 16/16/16 8/8/8 10/10/10
f 17/17/17 9/9/9 1/1/1
f 18/18/18 11/11/11 9/9/9
f 18/18/18 9/9/9 17/17/17
f 12/12/12 19/19/19 15/15/15
f 19/19/19 12/12/12 11/11/11
f 15/15/15 19/19/19 20/20/20
f 5/5/5 7/7/7 21/21/21
f 16/16/16 13/13/13 21/21/21
f 21/21/21 7/7/7 16/16/16
f 14/14/14 15/15/15 22/22/22
f 22/22/22 23/23/23 14/14/14
f 24/24/24 23/23/23 22/22/22
f 22/22/22 15/15/15 25/25/25
f 15/15/15 20/20/20 25/25/25
f 26/26/26 22/22/22 25/25/25
f 26/26/26 24/24/24 22/22/22
f 26/26/26 25/25/25 27/27/27
f 25/25/25 2/2/2 27/27/27
f 25/25/25 28/28/28 2/2/2
f 25/25/25 20/20/20 28/28/28
f 29/29/29 2/2/2 28/28/28
f 29/29/29 17/17/17 1/1/1
f 29/29/29 1/1/1 2/2/2
f 30/30/30 17/17/17 29/29/29
f 29/29/29 28/28/28 30/30/30
f 30/30/30 28/28/28 31/31/31
f 32/32/32 31/31/31 28/28/28
f 28/28/28 20/20/20 32/32/32
f 33/33/33 31/31/31 32/32/32
f 34/34/34 33/33/33 32/32/32
f 32/32/32 19/19/19 34/34/34
f 34/34/34 19/19/19 11/11/11
f 18/18/18 34/34/34 11/11/11
f 19/19/19 32/32/32 20/20/20
f 33/33/33 35/35/35 31/31/31
f 34/34/34 18/18/18 35/35/35
f 33/33/33 34/34/34 35/35/35
f 18/18/18 36/36/36 35/35/35
f 31/31/31 35/35/35 36/36/36
f 30/30/30 31/31/31 36/36/36
f 30/30/30 36/36/36 17/17/17
f 36/36/36 18/18/18 17/17/17
f 3/3/3 37/37/37 2/2/2
f 38/38/38 37/37/37 3/3/3
f 37/37/37 38/38/38 39/39/39
f 38/38/38 40/40/40 39/39/39
f 38/38/38 5/5/5 40/40/40
f 38/38/38 3/3/3 5/5/5
f 39/39/39 40/40/40 41/41/41
f 39/39/39 41/41/41 24/24/24
f 37/37/37 39/39/39 24/24/24
f 41/41/41 23/23/23 24/24/24
f 23/23/23 41/41/41 42/42/42
f 41/41/41 40/40/40 42/42/42
f 40/40/40 21/21/21 42/42/42
f 40/40/40 5/5/5 21/21/21
f 14/14/14 23/23/23 42/42/42
f 13/13/13 14/14/14 42/42/42
f 42/42/42 21/21/21 13/13/13
f 37/37/37 24/24/24 26/26/26
f 27/27/27 37/37/37 26/26/26
f 2/2/2 37/37/37 27/27/27
