g Snow5
v 0.7141747 0.216838 -0.3818722
v 1.153887 0.2240102 -0.07436369
v 0.810989 0.6780028 -0.08213847
v 1.122544 0.5477893 0.2056717
v 0.8107649 -0.09596083 -0.1497325
v 0.4426581 -0.2263932 -0.4442849
v 0.3779379 -0.5265565 -0.1213451
v 0.1681283 -0.5896766 -0.5042011
v 0.7185888 -0.2143606 0.3461919
v 1.197162 -0.169023 0.1596612
v 0.04020028 -0.5484849 0.306679
v 0.1905219 -0.09753738 0.6624877
v -0.06447377 -0.7221071 -0.1687485
v -0.2544805 -0.6494156 -0.6323568
v -0.4721586 -0.5535902 0.1358468
v -0.3687139 -0.2900876 0.5502065
v -0.730882 -0.1506799 0.2614046
v -0.544467 0.1577113 0.6433805
v -0.04209381 0.3834502 0.7015135
v 0.7968503 0.4725266 0.5408323
v -0.4027454 0.491935 0.5575448
v 0.7046431 0.1021051 0.6198548
v 1.17242 0.1449918 0.6688322
v 1.346262 0.3940422 0.4431778
v -0.536703 -0.7762322 -0.2911313
v -0.8350961 -0.5342602 0.01586217
v -0.9585326 -0.838405 -0.3549296
v -0.7656611 -0.7913848 -0.754537
v -1.164573 -0.4961551 -0.1123637
v -0.9294487 -0.007390957 0.001612864
v -0.581578 0.4279715 0.1782371
v -0.7134451 0.2803045 -0.3226734
v 0.06890871 0.5344852 -0.3131448
v -1.132632 0.04722399 -0.3588662
v -1.055211 -0.05918507 -0.7791268
v -0.3529113 0.08427834 -0.7075348
v -0.6351689 -0.3757663 -0.9461854
v 0.05523485 -0.2823202 -0.7092261
v -1.097754 -0.4936644 -0.9168306
v -1.165445 -0.7590579 -0.6677909
v -1.354918 -0.3685116 -0.5360548
v 0.2323282 0.1303479 -0.5564097
v 0.1884282 0.7587359 0.1704008
v 0.5487033 0.776866 0.3349941
v 1.485589 0.06857952 0.1987258
v 1.52614 0.06206542 0.4627504
v 1.327232 -0.1523779 0.4923461
vt 0.3632813 0.9921874
vt 0.3632813 0.9921874
vt 0.3632813 0.9921874
vt 0.3632813 0.9921874
vt 0.3632813 0.9921874
vt 0.3632813 0.9921874
vt 0.3632813 0.9921874
vt 0.3632813 0.9921874
vt 0.3632813 0.9921874
vt 0.3632813 0.9921874
vt 0.3632813 0.9921874
vt 0.3632813 0.9921874
vt 0.3632813 0.9921874
vt 0.3632813 0.9921874
vt 0.3632813 0.9921874
vt 0.3632813 0.9921874
vt 0.3632813 0.9921874
vt 0.3632813 0.9921874
vt 0.3632813 0.9921874
vt 0.3632813 0.9921874
vt 0.3632813 0.9921874
vt 0.3632813 0.9921874
vt 0.3632813 0.9921874
vt 0.3632813 0.9921874
vt 0.3632813 0.9921874
vt 0.3632813 0.9921874
vt 0.3632813 0.9921874
vt 0.3632813 0.9921874
vt 0.3632813 0.9921874
vt 0.3632813 0.9921874
vt 0.3632813 0.9921874
vt 0.3632813 0.9921874
vt 0.3632813 0.9921874
vt 0.3632813 0.9921874
vt 0.3632813 0.9921874
vt 0.3632813 0.9921874
vt 0.3632813 0.9921874
vt 0.3632813 0.9921874
vt 0.3632813 0.9921874
vt 0.3632813 0.9921874
vt 0.3632813 0.9921874
vt 0.3632813 0.9921874
vt 0.3632813 0.9921873
vt 0.3632813 0.9921874
vt 0.3632813 0.9921874
vt 0.3632813 0.9921874
vt 0.3632813 0.9921874
vn 0.4533639 0.1297985 -0.881824
vn 0.6649814 0.1019034 -0.7398753
vn 0.3830474 0.817886 -0.4293451
vn 0.5039624 0.8606091 -0.07330696
vn 0.5669572 -0.6189622 -0.5435489
vn 0.6215271 -0.3337294 -0.7087516
vn 0.5736694 -0.8177619 -0.04657229
vn 0.4952626 -0.7050503 -0.5075618
vn 0.2728098 -0.8693963 0.4119767
vn 0.3741923 -0.8309078 -0.4117916
vn 0.1413037 -0.8424816 0.5198635
vn 0.1326382 -0.3624509 0.9225163
vn 0.1825349 -0.9774363 0.1062981
vn 0.3058341 -0.7660655 -0.5653399
vn -0.252669 -0.7848334 0.5658576
vn -0.310565 -0.5330817 0.7870027
vn -0.760537 -0.1627281 0.6285722
vn -0.6297874 0.07049859 0.7735618
vn -0.03232014 0.3624189 0.9314548
vn 0.1827487 0.6017766 0.7774753
vn -0.4548296 0.7124738 0.5343324
vn 0.03921748 -0.2066471 0.9776292
vn 0.1800296 -0.009399747 0.9836163
vn 0.6430767 0.7057027 0.2973821
vn 0.08691781 -0.9746514 0.2061551
vn -0.3463328 -0.5385738 0.7681093
vn -0.2875822 -0.9149041 0.2832791
vn 0.1075496 -0.8260014 -0.5533126
vn -0.7105878 -0.2642997 0.6520817
vn -0.7604088 0.3559113 0.5432363
vn -0.6701089 0.7370985 0.08740684
vn -0.4251606 0.8728443 -0.2395439
vn -0.08203425 0.7944933 -0.6017066
vn -0.7399793 0.66191 0.1196065
vn -0.4511125 0.5941891 -0.6659105
vn 0.04113967 0.5715606 -0.8195279
vn 0.1421563 -0.02575781 -0.989509
vn 0.4021558 -0.09400013 -0.9107331
vn -0.4548215 -0.143713 -0.8789107
vn -0.623055 -0.7269433 -0.2887142
vn -0.9982678 0.02359098 -0.05389609
vn 0.2930428 0.3123613 -0.9036351
vn -0.1998697 0.9798165 -0.003418142
vn 0.1927866 0.9195895 0.3423283
vn 0.8737094 -0.1171335 -0.4721351
vn 0.9269236 -0.1077321 0.359453
vn 0.3938799 -0.7955728 0.4603506
g Snow5_0
f 3/3/3 2/2/2 1/1/1
f 2/2/2 3/3/3 4/4/4
f 2/2/2 5/5/5 1/1/1
f 5/5/5 6/6/6 1/1/1
f 7/7/7 6/6/6 5/5/5
f 6/6/6 7/7/7 8/8/8
f 9/9/9 7/7/7 5/5/5
f 2/2/2 10/10/10 5/5/5
f 9/9/9 5/5/5 10/10/10
f 7/7/7 9/9/9 11/11/11
f 9/9/9 12/12/12 11/11/11
f 11/11/11 13/13/13 7/7/7
f 7/7/7 13/13/13 8/8/8
f 8/8/8 13/13/13 14/14/14
f 13/13/13 11/11/11 15/15/15
f 16/16/16 15/15/15 11/11/11
f 11/11/11 12/12/12 16/16/16
f 15/15/15 16/16/16 17/17/17
f 17/17/17 16/16/16 18/18/18
f 19/19/19 18/18/18 16/16/16
f 12/12/12 19/19/19 16/16/16
f 19/19/19 12/12/12 20/20/20
f 18/18/18 19/19/19 21/21/21
f 22/22/22 12/12/12 9/9/9
f 20/20/20 12/12/12 22/22/22
f 20/20/20 22/22/22 23/23/23
f 9/9/9 23/23/23 22/22/22
f 20/20/20 23/23/23 24/24/24
f 15/15/15 25/25/25 13/13/13
f 25/25/25 14/14/14 13/13/13
f 25/25/25 15/15/15 26/26/26
f 26/26/26 15/15/15 17/17/17
f 25/25/25 26/26/26 27/27/27
f 14/14/14 25/25/25 28/28/28
f 25/25/25 27/27/27 28/28/28
f 27/27/27 26/26/26 29/29/29
f 29/29/29 26/26/26 30/30/30
f 17/17/17 30/30/30 26/26/26
f 30/30/30 17/17/17 31/31/31
f 18/18/18 21/21/21 31/31/31
f 18/18/18 31/31/31 17/17/17
f 30/30/30 31/31/31 32/32/32
f 32/32/32 31/31/31 33/33/33
f 34/34/34 30/30/30 32/32/32
f 29/29/29 30/30/30 34/34/34
f 35/35/35 34/34/34 32/32/32
f 36/36/36 35/35/35 32/32/32
f 32/32/32 33/33/33 36/36/36
f 37/37/37 35/35/35 36/36/36
f 36/36/36 38/38/38 37/37/37
f 37/37/37 39/39/39 35/35/35
f 28/28/28 39/39/39 37/37/37
f 40/40/40 39/39/39 28/28/28
f 28/28/28 27/27/27 40/40/40
f 27/27/27 29/29/29 40/40/40
f 41/41/41 35/35/35 39/39/39
f 40/40/40 41/41/41 39/39/39
f 41/41/41 34/34/34 35/35/35
f 29/29/29 41/41/41 40/40/40
f 41/41/41 29/29/29 34/34/34
f 38/38/38 36/36/36 42/42/42
f 36/36/36 33/33/33 42/42/42
f 42/42/42 6/6/6 38/38/38
f 31/31/31 43/43/43 33/33/33
f 43/43/43 31/31/31 21/21/21
f 3/3/3 33/33/33 43/43/43
f 38/38/38 14/14/14 37/37/37
f 37/37/37 14/14/14 28/28/28
f 21/21/21 19/19/19 43/43/43
f 8/8/8 14/14/14 38/38/38
f 38/38/38 6/6/6 8/8/8
f 1/1/1 6/6/6 42/42/42
f 43/43/43 44/44/44 3/3/3
f 19/19/19 44/44/44 43/43/43
f 44/44/44 20/20/20 3/3/3
f 19/19/19 20/20/20 44/44/44
f 4/4/4 3/3/3 20/20/20
f 4/4/4 20/20/20 24/24/24
f 33/33/33 3/3/3 1/1/1
f 42/42/42 33/33/33 1/1/1
f 4/4/4 24/24/24 2/2/2
f 24/24/24 45/45/45 2/2/2
f 24/24/24 46/46/46 45/45/45
f 46/46/46 47/47/47 45/45/45
f 45/45/45 47/47/47 10/10/10
f 45/45/45 10/10/10 2/2/2
f 23/23/23 47/47/47 46/46/46
f 24/24/24 23/23/23 46/46/46
f 23/23/23 9/9/9 47/47/47
f 9/9/9 10/10/10 47/47/47
