g Snow1
v 0.3489798 -0.3093244 -0.6617226
v -0.08129379 -0.3923399 -0.7473976
v 0.112994 -0.4969782 -0.5341871
v 0.068418 0.1185202 -0.6618985
v -0.2711657 0.001055926 -0.6012826
v -0.4261105 -0.2505152 -0.4419971
v 0.412024 0.1436088 -0.52601
v 0.1042667 0.4787205 -0.1624216
v -0.2048784 0.468033 0.1806957
v -0.4848633 0.03137418 -0.04598793
v -0.4314862 0.284306 0.319666
v -0.648015 -0.2254793 0.2196266
v 0.2642615 0.6888054 0.2375059
v -0.2804261 0.4273307 0.5816108
v -0.5749578 0.02528881 0.6528671
v -0.4780461 -0.3391987 0.4665576
v -0.1675923 0.08644201 0.8690157
v -0.0009284616 -0.2712278 0.5767015
v -0.08946535 -0.4799637 0.07470603
v 0.3229128 -0.2450967 0.2534902
v 0.2382234 -0.4211639 -0.1862807
v 0.5125083 -0.1600281 -0.2653294
v -0.2218869 -0.5078353 -0.2778973
v -0.4021396 -0.4352669 -0.1033042
v 0.3479477 -0.06189557 0.5170578
v 0.6297459 0.2411204 0.2196252
v 0.585615 0.4555991 -0.1124908
v 0.5629894 0.02057408 -0.2698132
v 0.4138695 0.532076 0.5099415
v 0.2219204 0.2767337 0.7380564
v -0.0738917 0.3253113 0.8130212
v 0.2286211 0.4321461 -0.2617196
vn 0.631269 -0.3881187 -0.6714635
vn -0.2566963 -0.4514692 -0.8545657
vn 0.1962089 -0.942987 -0.268845
vn -0.04263505 0.5286197 -0.8477874
vn -0.6038322 0.4084756 -0.6844957
vn -0.8398444 -0.247934 -0.4828975
vn 0.5562773 0.4044433 -0.7259347
vn -0.1975811 0.8596029 -0.4712159
vn -0.5517316 0.8078513 -0.2072885
vn -0.8884404 0.3492907 -0.2977745
vn -0.7935039 0.6002857 -0.1000425
vn -0.9502769 -0.3113265 -0.007049939
vn 0.1360215 0.9901766 0.03238025
vn -0.504204 0.773412 0.3842034
vn -0.821688 0.06259404 0.5664898
vn -0.4174449 -0.7776964 0.4700299
vn -0.1061144 -0.1157583 0.9875929
vn 0.2479686 -0.7425018 0.6222562
vn 0.05469074 -0.9747892 0.2163214
vn 0.628427 -0.7197719 0.294971
vn 0.5102473 -0.8521518 0.1161248
vn 0.897335 -0.43295 -0.08569882
vn -0.2991789 -0.9451466 -0.1311101
vn -0.6670268 -0.735817 -0.1168273
vn 0.6785019 -0.444481 0.5848691
vn 0.9707264 0.01754858 0.2395458
vn 0.7505031 0.5756879 -0.3245435
vn 0.99671 0.002960313 -0.08099662
vn 0.5765433 0.5825251 0.572942
vn 0.5113845 0.06204611 0.8571092
vn -0.07391874 0.5299748 0.8447856
vn 0.2171455 0.7712861 -0.5983022
g Snow1_0
f 3/3/3 2/2/2 1/1/1
f 1/1/1 2/2/2 4/4/4
f 2/2/2 5/5/5 4/4/4
f 6/6/6 5/5/5 2/2/2
f 1/1/1 4/4/4 7/7/7
f 4/4/4 5/5/5 8/8/8
f 7/7/7 4/4/4 8/8/8
f 5/5/5 9/9/9 8/8/8
f 9/9/9 5/5/5 10/10/10
f 10/10/10 5/5/5 6/6/6
f 11/11/11 9/9/9 10/10/10
f 11/11/11 10/10/10 12/12/12
f 9/9/9 13/13/13 8/8/8
f 13/13/13 9/9/9 14/14/14
f 9/9/9 11/11/11 14/14/14
f 14/14/14 11/11/11 15/15/15
f 11/11/11 12/12/12 15/15/15
f 15/15/15 12/12/12 16/16/16
f 15/15/15 16/16/16 17/17/17
f 14/14/14 15/15/15 17/17/17
f 17/17/17 16/16/16 18/18/18
f 16/16/16 19/19/19 18/18/18
f 18/18/18 19/19/19 20/20/20
f 20/20/20 19/19/19 21/21/21
f 22/22/22 20/20/20 21/21/21
f 21/21/21 19/19/19 3/3/3
f 3/3/3 19/19/19 23/23/23
f 24/24/24 12/12/12 10/10/10
f 24/24/24 23/23/23 19/19/19
f 24/24/24 19/19/19 16/16/16
f 12/12/12 24/24/24 16/16/16
f 24/24/24 6/6/6 23/23/23
f 6/6/6 24/24/24 10/10/10
f 18/18/18 25/25/25 17/17/17
f 20/20/20 25/25/25 18/18/18
f 25/25/25 20/20/20 26/26/26
f 26/26/26 20/20/20 22/22/22
f 22/22/22 27/27/27 26/26/26
f 27/27/27 22/22/22 28/28/28
f 26/26/26 27/27/27 13/13/13
f 29/29/29 26/26/26 13/13/13
f 26/26/26 29/29/29 30/30/30
f 25/25/25 26/26/26 30/30/30
f 31/31/31 30/30/30 29/29/29
f 29/29/29 13/13/13 31/31/31
f 17/17/17 30/30/30 31/31/31
f 25/25/25 30/30/30 17/17/17
f 31/31/31 14/14/14 17/17/17
f 13/13/13 14/14/14 31/31/31
f 7/7/7 28/28/28 22/22/22
f 27/27/27 32/32/32 13/13/13
f 28/28/28 7/7/7 32/32/32
f 27/27/27 28/28/28 32/32/32
f 32/32/32 7/7/7 8/8/8
f 32/32/32 8/8/8 13/13/13
f 1/1/1 7/7/7 22/22/22
f 1/1/1 22/22/22 21/21/21
f 3/3/3 1/1/1 21/21/21
f 2/2/2 3/3/3 23/23/23
f 6/6/6 2/2/2 23/23/23
