# This file uses centimeters as units for non-parametric coordinates.

mtllib sand_4.mtl
g default
v 0.327755 0.005380 0.412600
v -0.006093 0.604716 0.093356
v 0.591735 0.005380 -0.531815
v -0.006093 -0.626235 0.093356
v -0.306673 0.005380 0.407686
v -0.600634 0.005380 -0.475181
vt 0.992611 0.142822
vt 0.968890 0.185408
vt 0.947532 0.142822
vt 0.968890 0.097942
vt 0.129818 0.866658
vt 0.073500 0.920648
vt 0.044741 0.866658
vt 0.124716 0.866658
vt 0.073500 0.809759
vt 0.045184 0.866658
vt 0.007324 0.415270
vt 0.060522 0.466140
vt 0.012143 0.516732
vt 0.087269 0.491718
vn 0.759509 0.009156 -0.650432
vn -0.010590 0.984894 0.172832
vn 0.623660 0.010377 0.781627
vn 0.623660 0.010377 0.781627
vn -0.010468 -0.985174 0.171240
vn 0.759509 0.009156 -0.650432
vn 0.623660 0.010377 0.781627
vn -0.010590 0.984894 0.172832
vn -0.605530 0.010315 0.795756
vn -0.605530 0.010315 0.795756
vn -0.010468 -0.985174 0.171240
vn 0.623660 0.010377 0.781627
vn -0.800565 0.009369 -0.599172
vn -0.010590 0.984894 0.172832
vn 0.759509 0.009156 -0.650432
vn 0.759509 0.009156 -0.650432
vn -0.010468 -0.985174 0.171240
vn -0.800565 0.009369 -0.599172
vn -0.605530 0.010315 0.795756
vn -0.010590 0.984894 0.172832
vn -0.800565 0.009369 -0.599172
vn -0.800565 0.009369 -0.599172
vn -0.010468 -0.985174 0.171240
vn -0.605530 0.010315 0.795756
s off
g Sand4:Sand4_0
usemtl Sand5:standardSurface1SG
f 3/5/1 2/6/2 1/7/3
f 1/7/4 4/9/5 3/5/6
f 1/1/7 2/2/8 5/3/9
f 5/3/10 4/4/11 1/1/12
f 6/8/13 2/6/14 3/5/15
f 3/11/16 4/12/17 6/13/18
f 5/10/19 2/6/20 6/8/21
f 6/13/22 4/12/23 5/14/24
