# This file uses centimeters as units for non-parametric coordinates.

mtllib sand_1.mtl
g default
v -0.529345 -1.703647 -1.759667
v -1.260583 -1.717469 -0.909268
v 0.344086 -2.111547 -0.151418
v -1.048872 -1.456502 1.720996
v -1.956761 -0.000492 1.438066
v 0.199605 -1.393770 2.252883
v -0.942498 -0.432103 2.796690
v -1.111876 0.427148 2.685626
v 0.461473 -0.023118 2.923069
v 0.173226 1.386842 2.265690
v 1.303832 0.019970 2.301350
v 1.668344 -1.458931 -0.313664
v 2.237857 0.026429 -0.247094
v 0.824838 -1.528830 -1.936352
v -1.107558 1.443452 1.675556
v -0.738469 -0.007029 -2.600531
v 1.486130 1.261787 0.640873
v 1.480078 1.504305 -1.278790
v 0.533916 2.126195 -0.218902
v -0.439642 2.125693 -0.858313
v -0.163398 1.528162 -2.096966
v 0.879844 0.004396 -2.561453
v 2.007602 -0.000000 -1.638008
v -1.463140 1.447168 -1.019379
v -2.011434 0.009332 -1.226734
vt 0.351570 0.389896
vt 0.384272 0.492835
vt 0.273955 0.471398
vt 0.416673 0.398311
vt 0.254183 0.670684
vt 0.493675 0.474841
vt 0.385017 0.694737
vt 0.493956 0.679027
vt 0.383777 0.798825
vt 0.545366 0.666823
vt 0.255230 0.735116
vt 0.500093 0.760672
vt 0.124656 0.387801
vt 0.019593 0.183197
vt 0.124168 0.188405
vt 0.021833 0.402126
vt 0.125486 0.079577
vt 0.208296 0.250232
vt 0.124673 0.418611
vt 0.007324 0.056234
vt 0.240327 0.107683
vt 0.211568 0.399683
vt 0.119588 0.007324
vt 0.325583 0.222365
vt 0.658915 0.629637
vt 0.545759 0.576196
vt 0.597324 0.516229
vt 0.560688 0.761674
vt 0.692816 0.503769
vt 0.648727 0.799181
vt 0.752298 0.618196
vt 0.568189 0.837529
vt 0.289910 0.440190
vt 0.404176 0.277707
vt 0.184082 0.500839
vt 0.380954 0.148445
vt 0.465970 0.201121
vt 0.481452 0.119261
vt 0.480392 0.327662
vt 0.107847 0.500187
vt 0.816328 0.627239
vt 0.801744 0.508919
vt 0.910766 0.615047
vt 0.914602 0.508123
vt 0.841848 0.401857
vn 0.131478 -0.990235 0.046359
vn -0.636901 -0.743351 -0.204416
vn -0.285019 -0.748209 -0.599123
vn -0.524387 -0.763904 0.376123
vn -0.636901 -0.743351 -0.204416
vn 0.131478 -0.990235 0.046359
vn -0.636901 -0.743351 -0.204416
vn -0.524387 -0.763904 0.376123
vn -0.963483 -0.014497 0.267377
vn 0.237260 -0.756124 0.609905
vn -0.524387 -0.763904 0.376123
vn 0.131478 -0.990235 0.046359
vn -0.524387 -0.763904 0.376123
vn 0.237260 -0.756124 0.609905
vn -0.433221 -0.301531 0.849352
vn -0.433221 -0.301531 0.849352
vn -0.963483 -0.014497 0.267377
vn -0.524387 -0.763904 0.376123
vn -0.963483 -0.014497 0.267377
vn -0.433221 -0.301531 0.849352
vn -0.522164 0.306023 0.796050
vn -0.433221 -0.301531 0.849352
vn 0.237260 -0.756124 0.609905
vn 0.312672 -0.002899 0.949857
vn -0.522164 0.306023 0.796050
vn -0.433221 -0.301531 0.849352
vn 0.312672 -0.002899 0.949857
vn 0.312672 -0.002899 0.949857
vn 0.192883 0.749039 0.633828
vn -0.522164 0.306023 0.796050
vn 0.787916 -0.005585 0.615757
vn 0.192883 0.749039 0.633828
vn 0.312672 -0.002899 0.949857
vn 0.787916 -0.005585 0.615757
vn 0.312672 -0.002899 0.949857
vn 0.237260 -0.756124 0.609905
vn 0.237260 -0.756124 0.609905
vn 0.743327 -0.668250 0.030123
vn 0.787916 -0.005585 0.615757
vn 0.743327 -0.668250 0.030123
vn 0.237260 -0.756124 0.609905
vn 0.131478 -0.990235 0.046359
vn 0.787916 -0.005585 0.615757
vn 0.743327 -0.668250 0.030123
vn 0.995899 0.024263 0.087162
vn 0.743327 -0.668250 0.030123
vn 0.131478 -0.990235 0.046359
vn 0.353133 -0.691525 -0.630152
vn 0.131478 -0.990235 0.046359
vn -0.285019 -0.748209 -0.599123
vn 0.353133 -0.691525 -0.630152
vn -0.522164 0.306023 0.796050
vn -0.535119 0.761661 0.365403
vn -0.963483 -0.014497 0.267377
vn -0.535119 0.761661 0.365403
vn -0.522164 0.306023 0.796050
vn 0.192883 0.749039 0.633828
vn -0.285019 -0.748209 -0.599123
vn -0.401322 -0.027192 -0.915533
vn 0.353133 -0.691525 -0.630152
vn -0.401322 -0.027192 -0.915533
vn -0.285019 -0.748209 -0.599123
vn -0.636901 -0.743351 -0.204416
vn 0.995899 0.024263 0.087162
vn 0.740557 0.612070 0.277392
vn 0.787916 -0.005585 0.615757
vn 0.740557 0.612070 0.277392
vn 0.192883 0.749039 0.633828
vn 0.787916 -0.005585 0.615757
vn 0.636665 0.681803 -0.360281
vn 0.740557 0.612070 0.277392
vn 0.995899 0.024263 0.087162
vn 0.251965 0.966537 0.048159
vn 0.740557 0.612070 0.277392
vn 0.636665 0.681803 -0.360281
vn 0.251965 0.966537 0.048159
vn -0.535119 0.761661 0.365403
vn 0.192883 0.749039 0.633828
vn 0.740557 0.612070 0.277392
vn 0.251965 0.966537 0.048159
vn 0.192883 0.749039 0.633828
vn 0.251965 0.966537 0.048159
vn 0.636665 0.681803 -0.360281
vn -0.213754 0.959908 -0.181343
vn 0.251965 0.966537 0.048159
vn -0.213754 0.959908 -0.181343
vn -0.535119 0.761661 0.365403
vn 0.636665 0.681803 -0.360281
vn -0.085270 0.667020 -0.740144
vn -0.213754 0.959908 -0.181343
vn -0.085270 0.667020 -0.740144
vn 0.636665 0.681803 -0.360281
vn 0.345079 0.024690 -0.938249
vn 0.345079 0.024690 -0.938249
vn -0.401322 -0.027192 -0.915533
vn -0.085270 0.667020 -0.740144
vn -0.401322 -0.027192 -0.915533
vn 0.345079 0.024690 -0.938249
vn 0.353133 -0.691525 -0.630152
vn 0.636665 0.681803 -0.360281
vn 0.853373 0.006134 -0.521265
vn 0.345079 0.024690 -0.938249
vn 0.853373 0.006134 -0.521265
vn 0.353133 -0.691525 -0.630152
vn 0.345079 0.024690 -0.938249
vn 0.995899 0.024263 0.087162
vn 0.853373 0.006134 -0.521265
vn 0.636665 0.681803 -0.360281
vn 0.995899 0.024263 0.087162
vn 0.743327 -0.668250 0.030123
vn 0.853373 0.006134 -0.521265
vn 0.743327 -0.668250 0.030123
vn 0.353133 -0.691525 -0.630152
vn 0.853373 0.006134 -0.521265
vn -0.085270 0.667020 -0.740144
vn -0.401322 -0.027192 -0.915533
vn -0.739473 0.615566 -0.272503
vn -0.535119 0.761661 0.365403
vn -0.213754 0.959908 -0.181343
vn -0.739473 0.615566 -0.272503
vn -0.085270 0.667020 -0.740144
vn -0.739473 0.615566 -0.272503
vn -0.213754 0.959908 -0.181343
vn -0.401322 -0.027192 -0.915533
vn -0.931105 -0.007630 -0.364672
vn -0.739473 0.615566 -0.272503
vn -0.739473 0.615566 -0.272503
vn -0.963483 -0.014497 0.267377
vn -0.535119 0.761661 0.365403
vn -0.931105 -0.007630 -0.364672
vn -0.963483 -0.014497 0.267377
vn -0.739473 0.615566 -0.272503
vn -0.931105 -0.007630 -0.364672
vn -0.401322 -0.027192 -0.915533
vn -0.636901 -0.743351 -0.204416
vn -0.931105 -0.007630 -0.364672
vn -0.636901 -0.743351 -0.204416
vn -0.963483 -0.014497 0.267377
s off
g Sand1:Sand1_0
usemtl Sand5:standardSurface1SG
f 3/25/1 2/26/2 1/27/3
f 4/28/4 2/26/5 3/25/6
f 2/5/7 4/3/8 5/2/9
f 6/30/10 4/28/11 3/25/12
f 4/28/13 6/30/14 7/32/15
f 7/1/16 5/2/17 4/3/18
f 5/2/19 7/1/20 8/4/21
f 7/40/22 6/16/23 9/19/24
f 8/35/25 7/40/26 9/19/27
f 9/19/28 10/22/29 8/35/30
f 11/13/31 10/22/32 9/19/33
f 11/13/34 9/19/35 6/16/36
f 6/16/37 12/14/38 11/13/39
f 12/31/40 6/30/41 3/25/42
f 11/13/43 12/14/44 13/15/45
f 12/31/46 3/25/47 14/29/48
f 3/25/49 1/27/50 14/29/51
f 8/4/52 15/6/53 5/2/54
f 15/33/55 8/35/56 10/22/57
f 1/41/58 16/42/59 14/43/60
f 16/9/61 1/11/62 2/5/63
f 13/15/64 17/18/65 11/13/66
f 17/18/67 10/22/68 11/13/69
f 18/21/70 17/18/71 13/15/72
f 19/24/73 17/18/74 18/21/75
f 19/24/76 15/33/77 10/22/78
f 17/18/79 19/24/80 10/22/81
f 19/24/82 18/36/83 20/34/84
f 19/24/85 20/34/86 15/33/87
f 18/36/88 21/37/89 20/34/90
f 21/37/91 18/36/92 22/38/93
f 22/44/94 16/42/95 21/45/96
f 16/42/97 22/44/98 14/43/99
f 18/21/100 23/17/101 22/23/102
f 23/17/103 14/20/104 22/23/105
f 13/15/106 23/17/107 18/21/108
f 13/15/109 12/14/110 23/17/111
f 12/14/112 14/20/113 23/17/114
f 21/12/115 16/9/116 24/8/117
f 15/6/118 20/10/119 24/8/120
f 21/37/121 24/39/122 20/34/123
f 16/9/124 25/7/125 24/8/126
f 24/8/127 5/2/128 15/6/129
f 25/7/130 5/2/131 24/8/132
f 25/7/133 16/9/134 2/5/135
f 25/7/136 2/5/137 5/2/138
