# This file uses centimeters as units for non-parametric coordinates.

mtllib sand_3.mtl
g default
v 1.927461 0.220007 -0.334916
v 1.393340 -0.168632 0.223638
v 1.524769 0.220007 0.349318
v 1.219858 0.220007 0.405054
v 1.393340 0.705331 0.223638
v 1.282095 0.220007 -0.942156
v 0.752916 -0.459583 -0.388773
v 0.490538 0.220007 -0.639676
v 0.752916 0.713133 -0.388773
v 0.140506 0.591643 0.251649
v 0.063531 0.220007 -0.949980
v -0.177776 1.106116 -0.697638
v -0.236559 1.106116 -0.108922
v -0.499918 1.238930 -0.360762
v -0.723198 1.106116 -0.127268
v -0.809207 1.106116 -0.656524
v -1.076034 0.220007 0.241707
v -0.400213 0.220007 0.817100
v 0.409432 0.220007 0.508812
v -1.007674 0.220007 -0.846309
v -1.112328 0.037751 0.279661
v -1.155747 -0.666102 0.238140
v -0.846943 -0.666102 -0.692610
v -0.499918 -1.235825 -0.360762
v -1.112328 -0.745819 0.279661
v -0.000046 -0.666102 -0.883497
v -1.140872 -0.666102 0.309509
v -0.471904 -0.783732 0.892073
v -0.513952 -0.666102 0.936042
v -0.471906 0.064426 0.892072
v -0.404198 -0.666102 0.956820
v 0.514117 -0.666102 0.608918
v 0.655454 -0.666102 -0.286853
v 0.140506 -1.253319 0.251649
vt 0.760448 0.431573
vt 0.769874 0.402427
vt 0.811763 0.431573
vt 0.769874 0.467970
vt 0.749101 0.591228
vt 0.722804 0.506200
vt 0.785506 0.524056
vt 0.785506 0.565714
vt 0.819767 0.134581
vt 0.899071 0.134581
vt 0.872177 0.199168
vt 0.901837 0.121297
vt 0.833601 0.199168
vt 0.898811 0.069994
vt 0.946475 0.123241
vt 0.904013 0.069994
vt 0.830970 0.069994
vt 0.941010 0.134581
vt 0.901837 0.064184
vt 0.855158 0.028468
vt 0.949679 0.069994
vt 0.946475 0.061421
vt 0.753604 0.877485
vt 0.817096 0.877485
vt 0.760699 0.940293
vt 0.778927 0.835863
vt 0.824320 0.892123
vt 0.414699 0.296154
vt 0.456367 0.336000
vt 0.369399 0.344299
vt 0.410681 0.383776
vt 0.477641 0.409400
vt 0.094344 0.607109
vt 0.140214 0.655858
vt 0.052153 0.647455
vt 0.098413 0.695831
vt 0.117365 0.715650
vt 0.050037 0.742091
vt 0.140805 0.747905
vt 0.038449 0.660559
vt 0.030611 0.721777
vt 0.007324 0.782935
vt 0.050788 0.833984
vt 0.219087 0.919738
vt 0.193812 0.943908
vt 0.174917 0.924148
vt 0.216002 0.967112
vt 0.176294 0.960659
vt 0.147865 0.895859
vt 0.674034 0.932603
vt 0.624927 0.885644
vt 0.671886 0.836537
vt 0.720993 0.883496
vt 0.679226 0.937568
vt 0.710216 0.796454
vt 0.749641 0.910891
vt 0.645276 0.811091
vt 0.760479 0.842204
vt 0.431769 0.030123
vt 0.402709 0.017151
vt 0.431769 0.007324
vt 0.431769 0.090722
vt 0.468058 0.017151
vt 0.468641 0.065038
vt 0.329864 0.782580
vt 0.377758 0.819875
vt 0.329864 0.838365
vt 0.392313 0.826743
vt 0.392313 0.872939
vt 0.329864 0.868459
vt 0.392313 0.932625
vt 0.329864 0.943952
vt 0.267416 0.885465
vt 0.267416 0.929965
vt 0.942573 0.202741
vt 0.879771 0.227748
vt 0.906110 0.141527
vt 0.926762 0.598673
vt 0.918557 0.595740
vt 0.926762 0.591017
vt 0.977722 0.595740
vt 0.926762 0.526958
vt 0.988574 0.590739
vt 0.988574 0.534260
vn 0.586638 -0.035738 0.809061
vn 0.393366 -0.807606 0.439358
vn 0.968105 0.016725 -0.249984
vn 0.032839 0.004883 0.999449
vn 0.393366 -0.807606 0.439358
vn 0.586638 -0.035738 0.809061
vn 0.586638 -0.035738 0.809061
vn 0.386132 0.851828 0.353964
vn 0.032839 0.004883 0.999449
vn 0.968105 0.016725 -0.249984
vn 0.386132 0.851828 0.353964
vn 0.586638 -0.035738 0.809061
vn 0.968105 0.016725 -0.249984
vn 0.393366 -0.807606 0.439358
vn 0.347892 0.031374 -0.937010
vn 0.968105 0.016725 -0.249984
vn 0.347892 0.031374 -0.937010
vn 0.386132 0.851828 0.353964
vn 0.393366 -0.807606 0.439358
vn 0.689738 -0.583164 -0.429163
vn 0.347892 0.031374 -0.937010
vn 0.347892 0.031374 -0.937010
vn 0.689738 -0.583164 -0.429163
vn -0.033846 0.332907 -0.942352
vn -0.033846 0.332907 -0.942352
vn -0.043978 0.961408 -0.271588
vn 0.347892 0.031374 -0.937010
vn 0.347892 0.031374 -0.937010
vn -0.043978 0.961408 -0.271588
vn 0.386132 0.851828 0.353964
vn 0.386132 0.851828 0.353964
vn -0.043978 0.961408 -0.271588
vn 0.032839 0.004883 0.999449
vn -0.043978 0.961408 -0.271588
vn -0.033846 0.332907 -0.942352
vn 0.163614 0.845660 0.508025
vn -0.043978 0.961408 -0.271588
vn 0.163614 0.845660 0.508025
vn 0.032839 0.004883 0.999449
vn -0.033846 0.332907 -0.942352
vn 0.273145 0.237712 -0.932140
vn 0.163614 0.845660 0.508025
vn 0.163614 0.845660 0.508025
vn 0.273145 0.237712 -0.932140
vn 0.475251 0.662183 -0.579353
vn 0.449787 0.754274 0.478292
vn 0.163614 0.845660 0.508025
vn 0.475251 0.662183 -0.579353
vn 0.475251 0.662183 -0.579353
vn -0.019990 0.998346 0.053897
vn 0.449787 0.754274 0.478292
vn 0.449787 0.754274 0.478292
vn -0.019990 0.998346 0.053897
vn -0.543875 0.683101 0.487415
vn 0.449787 0.754274 0.478292
vn -0.543875 0.683101 0.487415
vn 0.163614 0.845660 0.508025
vn -0.543875 0.683101 0.487415
vn -0.019990 0.998346 0.053897
vn -0.580538 0.626897 -0.519591
vn -0.580538 0.626897 -0.519591
vn -0.019990 0.998346 0.053897
vn 0.475251 0.662183 -0.579353
vn -0.543875 0.683101 0.487415
vn -0.793358 0.467286 0.390163
vn 0.163614 0.845660 0.508025
vn 0.163614 0.845660 0.508025
vn -0.793358 0.467286 0.390163
vn -0.094396 0.589720 0.802072
vn 0.360303 0.277628 0.890564
vn 0.163614 0.845660 0.508025
vn -0.094396 0.589720 0.802072
vn 0.032839 0.004883 0.999449
vn 0.163614 0.845660 0.508025
vn 0.360303 0.277628 0.890564
vn -0.710243 0.111853 -0.695014
vn -0.793358 0.467286 0.390163
vn -0.543875 0.683101 0.487415
vn -0.580538 0.626897 -0.519591
vn -0.710243 0.111853 -0.695014
vn -0.543875 0.683101 0.487415
vn 0.475251 0.662183 -0.579353
vn 0.273145 0.237712 -0.932140
vn -0.710243 0.111853 -0.695014
vn -0.580538 0.626897 -0.519591
vn 0.475251 0.662183 -0.579353
vn -0.710243 0.111853 -0.695014
vn -0.710243 0.111853 -0.695014
vn -0.929888 0.156929 0.332689
vn -0.793358 0.467286 0.390163
vn -0.957912 -0.282274 -0.052219
vn -0.929888 0.156929 0.332689
vn -0.710243 0.111853 -0.695014
vn -0.631961 -0.376332 -0.677495
vn -0.957912 -0.282274 -0.052219
vn -0.710243 0.111853 -0.695014
vn -0.710243 0.111853 -0.695014
vn 0.273145 0.237712 -0.932140
vn -0.631961 -0.376332 -0.677495
vn -0.631961 -0.376332 -0.677495
vn -0.228774 -0.919733 -0.318989
vn -0.957912 -0.282274 -0.052219
vn -0.228774 -0.919733 -0.318989
vn -0.704139 -0.675848 0.217755
vn -0.957912 -0.282274 -0.052219
vn 0.235210 -0.448140 -0.862466
vn -0.228774 -0.919733 -0.318989
vn -0.631961 -0.376332 -0.677495
vn 0.273145 0.237712 -0.932140
vn 0.235210 -0.448140 -0.862466
vn -0.631961 -0.376332 -0.677495
vn -0.957912 -0.282274 -0.052219
vn -0.704139 -0.675848 0.217755
vn -0.856697 -0.189248 0.479849
vn -0.856697 -0.189248 0.479849
vn -0.929888 0.156929 0.332689
vn -0.957912 -0.282274 -0.052219
vn -0.856697 -0.189248 0.479849
vn -0.704139 -0.675848 0.217755
vn -0.209853 -0.690629 0.692094
vn -0.209853 -0.690629 0.692094
vn -0.704139 -0.675848 0.217755
vn -0.228774 -0.919733 -0.318989
vn -0.467072 -0.185132 0.864621
vn -0.856697 -0.189248 0.479849
vn -0.209853 -0.690629 0.692094
vn -0.233408 0.236002 0.943305
vn -0.929888 0.156929 0.332689
vn -0.856697 -0.189248 0.479849
vn -0.467072 -0.185132 0.864621
vn -0.233408 0.236002 0.943305
vn -0.856697 -0.189248 0.479849
vn -0.793358 0.467286 0.390163
vn -0.929888 0.156929 0.332689
vn -0.233408 0.236002 0.943305
vn -0.094396 0.589720 0.802072
vn -0.793358 0.467286 0.390163
vn -0.233408 0.236002 0.943305
vn -0.467072 -0.185132 0.864621
vn -0.209853 -0.690629 0.692094
vn 0.120275 -0.232127 0.965221
vn 0.120275 -0.232127 0.965221
vn -0.233408 0.236002 0.943305
vn -0.467072 -0.185132 0.864621
vn -0.094396 0.589720 0.802072
vn -0.233408 0.236002 0.943305
vn 0.730719 -0.265058 0.629121
vn 0.360303 0.277628 0.890564
vn -0.094396 0.589720 0.802072
vn 0.730719 -0.265058 0.629121
vn 0.730719 -0.265058 0.629121
vn -0.233408 0.236002 0.943305
vn 0.120275 -0.232127 0.965221
vn 0.730719 -0.265058 0.629121
vn 0.872542 -0.401265 -0.278670
vn 0.360303 0.277628 0.890564
vn 0.872542 -0.401265 -0.278670
vn 0.689738 -0.583164 -0.429163
vn 0.360303 0.277628 0.890564
vn 0.360303 0.277628 0.890564
vn 0.689738 -0.583164 -0.429163
vn 0.393366 -0.807606 0.439358
vn 0.032839 0.004883 0.999449
vn 0.360303 0.277628 0.890564
vn 0.393366 -0.807606 0.439358
vn 0.730719 -0.265058 0.629121
vn 0.308705 -0.931610 0.191846
vn 0.872542 -0.401265 -0.278670
vn 0.120275 -0.232127 0.965221
vn -0.209853 -0.690629 0.692094
vn 0.308705 -0.931610 0.191846
vn 0.730719 -0.265058 0.629121
vn 0.120275 -0.232127 0.965221
vn 0.308705 -0.931610 0.191846
vn 0.308705 -0.931610 0.191846
vn -0.228774 -0.919733 -0.318989
vn 0.235210 -0.448140 -0.862466
vn 0.872542 -0.401265 -0.278670
vn 0.308705 -0.931610 0.191846
vn 0.235210 -0.448140 -0.862466
vn 0.308705 -0.931610 0.191846
vn -0.209853 -0.690629 0.692094
vn -0.228774 -0.919733 -0.318989
vn 0.872542 -0.401265 -0.278670
vn 0.235210 -0.448140 -0.862466
vn -0.033846 0.332907 -0.942352
vn 0.689738 -0.583164 -0.429163
vn 0.872542 -0.401265 -0.278670
vn -0.033846 0.332907 -0.942352
vn -0.033846 0.332907 -0.942352
vn 0.235210 -0.448140 -0.862466
vn 0.273145 0.237712 -0.932140
s off
g Sand3:Sand3_0
usemtl Sand5:standardSurface1SG
f 3/1/1 2/2/2 1/3/3
f 4/59/4 2/60/5 3/61/6
f 3/61/7 5/63/8 4/59/9
f 1/3/10 5/4/11 3/1/12
f 1/28/13 2/29/14 6/30/15
f 1/33/16 6/34/17 5/35/18
f 2/29/19 7/31/20 6/30/21
f 6/65/22 7/66/23 8/67/24
f 8/37/25 9/36/26 6/34/27
f 6/34/28 9/36/29 5/35/30
f 5/63/31 9/64/32 4/59/33
f 9/36/34 8/37/35 10/38/36
f 9/36/37 10/38/38 4/40/39
f 8/37/40 11/39/41 10/38/42
f 10/5/43 11/6/44 12/7/45
f 13/8/46 10/5/47 12/7/48
f 12/44/49 14/45/50 13/46/51
f 13/46/52 14/45/53 15/48/54
f 13/46/55 15/48/56 10/49/57
f 15/48/58 14/45/59 16/47/60
f 16/47/61 14/45/62 12/44/63
f 15/75/64 17/76/65 10/77/66
f 10/38/67 17/43/68 18/42/69
f 19/41/70 10/38/71 18/42/72
f 4/40/73 10/38/74 19/41/75
f 20/9/76 17/10/77 15/11/78
f 16/13/79 20/9/80 15/11/81
f 12/73/82 11/70/83 20/72/84
f 16/74/85 12/73/86 20/72/87
f 20/9/88 21/12/89 17/10/90
f 22/14/91 21/12/92 20/9/93
f 23/17/94 22/14/95 20/9/96
f 20/72/97 11/70/98 23/71/99
f 23/17/100 24/20/101 22/14/102
f 24/20/103 25/19/104 22/14/105
f 26/55/106 24/52/107 23/57/108
f 11/70/109 26/69/110 23/71/111
f 22/14/112 25/19/113 27/16/114
f 27/16/115 21/12/116 22/14/117
f 27/16/118 25/19/119 28/22/120
f 28/50/121 25/51/122 24/52/123
f 29/21/124 27/16/125 28/22/126
f 30/15/127 21/12/128 27/16/129
f 29/21/130 30/15/131 27/16/132
f 17/10/133 21/12/134 30/15/135
f 18/18/136 17/10/137 30/15/138
f 29/78/139 28/79/140 31/80/141
f 31/80/142 30/81/143 29/78/144
f 18/83/145 30/81/146 32/82/147
f 19/84/148 18/83/149 32/82/150
f 32/82/151 30/81/152 31/80/153
f 32/23/154 33/24/155 19/25/156
f 33/24/157 7/27/158 19/25/159
f 19/32/160 7/31/161 2/29/162
f 4/59/163 19/62/164 2/60/165
f 32/23/166 34/26/167 33/24/168
f 31/54/169 28/50/170 34/53/171
f 32/56/172 31/54/173 34/53/174
f 34/53/175 24/52/176 26/55/177
f 33/58/178 34/53/179 26/55/180
f 34/53/181 28/50/182 24/52/183
f 33/68/184 26/69/185 8/67/186
f 7/66/187 33/68/188 8/67/189
f 8/67/190 26/69/191 11/70/192
