# This file uses centimeters as units for non-parametric coordinates.

mtllib sand_6.mtl
g default
v 1.240364 -0.046303 0.223840
v 1.226146 -0.004625 0.210243
v 1.237034 -0.046303 0.198856
v 1.226146 -0.276788 0.210243
v 0.657406 -0.046303 -0.477130
v 0.585722 -0.270405 -0.402169
v 0.585722 0.402386 -0.402169
v 0.762574 -0.046303 0.992994
v 0.613734 0.313708 0.850665
v 0.613734 -0.579463 0.850665
v 0.464938 -0.046303 1.006269
v -0.026688 0.224053 0.238254
v -0.026688 -0.384917 0.238254
v -0.103007 -0.046303 0.318064
v 0.180549 -0.046303 -1.260588
v -0.054700 0.800583 -1.014580
v -0.054700 -0.374374 -1.014580
v -0.667112 0.555423 -0.374157
v -0.667112 -0.174165 -0.374157
v -0.301394 -0.046303 -1.250486
v -0.791807 -0.046303 -0.493398
v -1.279522 0.818826 0.266265
v -0.808963 -0.046303 0.716243
v -1.279522 -0.494607 0.266265
v -1.621061 -0.046303 0.623426
v -1.711825 -0.046303 -0.147128
vt 0.892608 0.885776
vt 0.895966 0.886693
vt 0.892608 0.887789
vt 0.892608 0.831316
vt 0.892608 0.949754
vt 0.874040 0.886693
vt 0.928756 0.837355
vt 0.921612 0.938288
vt 0.874554 0.837355
vt 0.892608 0.768198
vt 0.849655 0.938288
vt 0.960836 0.788017
vt 0.866178 0.788017
vt 0.574362 0.491730
vt 0.548414 0.554581
vt 0.518381 0.491730
vt 0.548414 0.459160
vt 0.212461 0.495559
vt 0.258767 0.539839
vt 0.168181 0.541865
vt 0.214487 0.586145
vt 0.123901 0.588170
vt 0.170206 0.632450
vt 0.216512 0.676730
vt 0.161585 0.641466
vt 0.249047 0.642707
vt 0.186622 0.707988
vt 0.106844 0.606007
vt 0.242336 0.701425
vt 0.106113 0.571160
vt 0.094594 0.589564
vt 0.051935 0.544953
vt 0.096545 0.502294
vt 0.049984 0.632223
vt 0.007324 0.587613
vt 0.526206 0.763393
vt 0.554289 0.775003
vt 0.526206 0.786611
vt 0.526206 0.830915
vt 0.484615 0.775003
vt 0.547296 0.824962
vt 0.573145 0.874920
vt 0.499791 0.824962
vt 0.526206 0.885985
vt 0.593693 0.922693
vt 0.526206 0.949336
vt 0.960803 0.648561
vt 0.893093 0.628838
vt 0.960803 0.610030
vt 0.960803 0.687770
vt 0.912694 0.677801
vt 0.960803 0.761326
vt 0.891635 0.726764
vt 0.068682 0.929540
vt 0.011916 0.952888
vt 0.007324 0.876204
vn 0.901341 0.049135 -0.430314
vn 0.777663 0.624486 -0.072514
vn 0.963359 0.116643 0.241526
vn 0.963359 0.116643 0.241526
vn 0.750266 -0.652908 -0.103981
vn 0.901341 0.049135 -0.430314
vn 0.901341 0.049135 -0.430314
vn 0.750266 -0.652908 -0.103981
vn 0.778387 -0.093480 -0.620787
vn 0.901341 0.049135 -0.430314
vn 0.778387 -0.093480 -0.620787
vn 0.777663 0.624486 -0.072514
vn 0.750266 -0.652908 -0.103981
vn 0.396991 -0.824135 -0.403980
vn 0.778387 -0.093480 -0.620787
vn 0.778387 -0.093480 -0.620787
vn 0.584780 0.784926 -0.204754
vn 0.777663 0.624486 -0.072514
vn 0.963359 0.116643 0.241526
vn 0.777663 0.624486 -0.072514
vn 0.518161 0.087225 0.850824
vn 0.963359 0.116643 0.241526
vn 0.518161 0.087225 0.850824
vn 0.750266 -0.652908 -0.103981
vn 0.777663 0.624486 -0.072514
vn 0.068822 0.806846 0.586739
vn 0.518161 0.087225 0.850824
vn 0.777663 0.624486 -0.072514
vn 0.584780 0.784926 -0.204754
vn 0.068822 0.806846 0.586739
vn 0.518161 0.087225 0.850824
vn 0.054049 -0.821810 0.567192
vn 0.750266 -0.652908 -0.103981
vn 0.750266 -0.652908 -0.103981
vn 0.054049 -0.821810 0.567192
vn 0.396991 -0.824135 -0.403980
vn 0.518161 0.087225 0.850824
vn 0.068822 0.806846 0.586739
vn -0.430288 0.057437 0.900862
vn -0.430288 0.057437 0.900862
vn 0.054049 -0.821810 0.567192
vn 0.518161 0.087225 0.850824
vn 0.584780 0.784926 -0.204754
vn 0.019685 0.905174 0.424585
vn 0.068822 0.806846 0.586739
vn 0.054049 -0.821810 0.567192
vn -0.161812 -0.952380 0.258436
vn 0.396991 -0.824135 -0.403980
vn -0.226266 0.112614 0.967534
vn -0.161812 -0.952380 0.258436
vn 0.054049 -0.821810 0.567192
vn -0.430288 0.057437 0.900862
vn -0.226266 0.112614 0.967534
vn 0.054049 -0.821810 0.567192
vn 0.068822 0.806846 0.586739
vn 0.019685 0.905174 0.424585
vn -0.226266 0.112614 0.967534
vn -0.430288 0.057437 0.900862
vn 0.068822 0.806846 0.586739
vn -0.226266 0.112614 0.967534
vn 0.778387 -0.093480 -0.620787
vn 0.485629 -0.158153 -0.859739
vn 0.584780 0.784926 -0.204754
vn 0.778387 -0.093480 -0.620787
vn 0.396991 -0.824135 -0.403980
vn 0.485629 -0.158153 -0.859739
vn 0.485629 -0.158153 -0.859739
vn 0.027986 0.873704 -0.485652
vn 0.584780 0.784926 -0.204754
vn 0.584780 0.784926 -0.204754
vn 0.027986 0.873704 -0.485652
vn 0.019685 0.905174 0.424585
vn 0.396991 -0.824135 -0.403980
vn -0.001648 -0.896238 -0.443571
vn 0.485629 -0.158153 -0.859739
vn 0.396991 -0.824135 -0.403980
vn -0.161812 -0.952380 0.258436
vn -0.001648 -0.896238 -0.443571
vn 0.027986 0.873704 -0.485652
vn -0.285266 0.928219 -0.238815
vn 0.019685 0.905174 0.424585
vn 0.019685 0.905174 0.424585
vn -0.285266 0.928219 -0.238815
vn -0.226266 0.112614 0.967534
vn -0.161812 -0.952380 0.258436
vn -0.227033 -0.901782 -0.367757
vn -0.001648 -0.896238 -0.443571
vn -0.499654 -0.202859 -0.842137
vn 0.027986 0.873704 -0.485652
vn 0.485629 -0.158153 -0.859739
vn 0.485629 -0.158153 -0.859739
vn -0.001648 -0.896238 -0.443571
vn -0.499654 -0.202859 -0.842137
vn -0.625883 -0.269665 -0.731814
vn -0.285266 0.928219 -0.238815
vn 0.027986 0.873704 -0.485652
vn -0.499654 -0.202859 -0.842137
vn -0.625883 -0.269665 -0.731814
vn 0.027986 0.873704 -0.485652
vn -0.001648 -0.896238 -0.443571
vn -0.227033 -0.901782 -0.367757
vn -0.625883 -0.269665 -0.731814
vn -0.499654 -0.202859 -0.842137
vn -0.001648 -0.896238 -0.443571
vn -0.625883 -0.269665 -0.731814
vn -0.285266 0.928219 -0.238815
vn -0.325180 0.923811 0.202066
vn -0.226266 0.112614 0.967534
vn -0.226266 0.112614 0.967534
vn -0.325180 0.923811 0.202066
vn 0.202710 -0.049319 0.977996
vn -0.226266 0.112614 0.967534
vn 0.202710 -0.049319 0.977996
vn -0.161812 -0.952380 0.258436
vn 0.202710 -0.049319 0.977996
vn -0.258867 -0.956910 0.131570
vn -0.161812 -0.952380 0.258436
vn -0.161812 -0.952380 0.258436
vn -0.258867 -0.956910 0.131570
vn -0.227033 -0.901782 -0.367757
vn 0.202710 -0.049319 0.977996
vn -0.325180 0.923811 0.202066
vn -0.697497 -0.128488 0.704974
vn -0.697497 -0.128488 0.704974
vn -0.258867 -0.956910 0.131570
vn 0.202710 -0.049319 0.977996
vn -0.840504 -0.159220 -0.517883
vn -0.325180 0.923811 0.202066
vn -0.285266 0.928219 -0.238815
vn -0.625883 -0.269665 -0.731814
vn -0.840504 -0.159220 -0.517883
vn -0.285266 0.928219 -0.238815
vn -0.227033 -0.901782 -0.367757
vn -0.258867 -0.956910 0.131570
vn -0.840504 -0.159220 -0.517883
vn -0.625883 -0.269665 -0.731814
vn -0.227033 -0.901782 -0.367757
vn -0.840504 -0.159220 -0.517883
vn -0.697497 -0.128488 0.704974
vn -0.325180 0.923811 0.202066
vn -0.840504 -0.159220 -0.517883
vn -0.840504 -0.159220 -0.517883
vn -0.258867 -0.956910 0.131570
vn -0.697497 -0.128488 0.704974
s off
g Sand6:Sand6_0
usemtl Sand5:standardSurface1SG
f 3/1/1 2/2/2 1/3/3
f 1/3/4 4/6/5 3/1/6
f 3/1/7 4/6/8 5/4/9
f 3/1/10 5/4/11 2/2/12
f 4/6/13 6/9/14 5/4/15
f 5/4/16 7/7/17 2/2/18
f 1/3/19 2/2/20 8/5/21
f 1/3/22 8/5/23 4/6/24
f 2/2/25 9/8/26 8/5/27
f 2/2/28 7/7/29 9/8/30
f 8/5/31 10/11/32 4/6/33
f 4/18/34 10/19/35 6/20/36
f 8/36/37 9/37/38 11/38/39
f 11/38/40 10/40/41 8/36/42
f 7/31/43 12/32/44 9/33/45
f 10/19/46 13/21/47 6/20/48
f 14/39/49 13/43/50 10/40/51
f 11/38/52 14/39/53 10/40/54
f 9/37/55 12/41/56 14/39/57
f 11/38/58 9/37/59 14/39/60
f 5/4/61 15/10/62 7/7/63
f 5/4/64 6/9/65 15/10/66
f 15/10/67 16/12/68 7/7/69
f 7/31/70 16/34/71 12/32/72
f 6/9/73 17/13/74 15/10/75
f 6/20/76 13/21/77 17/22/78
f 16/34/79 18/35/80 12/32/81
f 12/41/82 18/42/83 14/39/84
f 13/21/85 19/23/86 17/22/87
f 20/47/88 16/48/89 15/49/90
f 15/30/91 17/22/92 20/28/93
f 21/50/94 18/51/95 16/48/96
f 20/47/97 21/50/98 16/48/99
f 17/22/100 19/23/101 21/25/102
f 20/28/103 17/22/104 21/25/105
f 18/54/106 22/55/107 14/56/108
f 14/39/109 22/45/110 23/44/111
f 14/39/112 23/44/113 13/43/114
f 23/26/115 24/24/116 13/21/117
f 13/21/118 24/24/119 19/23/120
f 23/44/121 22/45/122 25/46/123
f 25/29/124 24/24/125 23/26/126
f 26/52/127 22/53/128 18/51/129
f 21/50/130 26/52/131 18/51/132
f 19/23/133 24/24/134 26/27/135
f 21/25/136 19/23/137 26/27/138
f 25/14/139 22/15/140 26/16/141
f 26/16/142 24/17/143 25/14/144
