# This file uses centimeters as units for non-parametric coordinates.

mtllib bank_02.mtl
g default
v 1.110061 0.957858 -2.437984
v 1.110061 0.957859 2.438403
v -0.988518 0.957859 2.438402
v -0.988518 0.957858 -2.437986
v -0.988519 1.171752 2.438402
v -0.988518 1.171751 -2.437984
v -0.802578 1.064668 -2.437984
v -0.802578 1.064669 2.438403
v -0.599286 1.108956 -2.437983
v -0.599286 1.108958 2.438404
v 0.979284 1.171751 -2.437983
v 1.110061 1.040974 -2.437984
v 1.110060 1.040975 2.438404
v 0.979282 1.171752 2.438404
v -1.216448 2.365351 2.438402
v -1.330054 2.420208 2.438402
v -1.330054 2.420206 -2.437985
v -1.216448 2.365350 -2.437985
v -1.398686 2.405256 2.438402
v -1.429624 2.341185 2.438402
v -1.429624 2.341183 -2.437986
v -1.398686 2.405255 -2.437985
v 0.487701 -0.002997 -1.786386
v 0.487701 -0.002997 -2.179643
v 0.880958 -0.002997 -2.179643
v 0.880958 -0.002997 -1.786386
v 0.487701 0.990877 -1.786386
v 0.487701 0.990877 -2.179643
v 0.880958 0.990877 -2.179643
v 0.880958 0.990877 -1.786386
v 0.487701 -0.002996 2.185949
v 0.487701 -0.002996 1.792692
v 0.880958 -0.002996 1.792692
v 0.880958 -0.002996 2.185949
v 0.487701 0.990878 2.185949
v 0.487701 0.990878 1.792692
v 0.880958 0.990878 1.792692
v 0.880958 0.990878 2.185949
v -0.784598 -0.002997 -1.786386
v -0.784598 -0.002997 -2.179643
v -0.391340 -0.002997 -2.179643
v -0.391340 -0.002997 -1.786386
v -0.784598 0.990877 -1.786386
v -0.784598 0.990877 -2.179643
v -0.391340 0.990877 -2.179643
v -0.391340 0.990877 -1.786386
v -0.784598 -0.002996 2.185949
v -0.784598 -0.002996 1.792692
v -0.391340 -0.002996 1.792692
v -0.391340 -0.002996 2.185949
v -0.784598 0.990878 2.185949
v -0.784598 0.990878 1.792692
v -0.391340 0.990878 1.792692
v -0.391340 0.990878 2.185949
vt 0.908922 0.004883
vt 0.935584 0.004883
vt 0.935584 0.612718
vt 0.908922 0.612718
vt 0.904091 0.685347
vt 0.892493 0.685346
vt 0.892493 0.004883
vt 0.904091 0.004883
vt 0.874244 0.685346
vt 0.874244 0.004883
vt 0.869047 0.646468
vt 0.703743 0.646468
vt 0.703743 0.004883
vt 0.869047 0.004883
vt 0.522165 0.646418
vt 0.522165 0.004883
vt 0.690102 0.004883
vt 0.690102 0.646418
vt 0.698532 0.004883
vt 0.698532 0.646418
vt 0.716748 0.651332
vt 0.765767 0.651332
vt 0.765767 0.775217
vt 0.716748 0.775217
vt 0.657879 0.775167
vt 0.608860 0.775167
vt 0.608860 0.651282
vt 0.657879 0.651282
vt 0.824635 0.690210
vt 0.873654 0.690210
vt 0.873654 0.814095
vt 0.824635 0.814095
vt 0.711823 0.775217
vt 0.662804 0.775217
vt 0.662804 0.651332
vt 0.711823 0.651332
vt 0.285198 0.746331
vt 0.334217 0.746331
vt 0.334217 0.870216
vt 0.285198 0.870216
vt 0.442104 0.870216
vt 0.393085 0.870216
vt 0.393085 0.746331
vt 0.442104 0.746331
vt 0.339141 0.746331
vt 0.388160 0.746331
vt 0.388160 0.870216
vt 0.339141 0.870216
vt 0.819710 0.775217
vt 0.770691 0.775217
vt 0.770691 0.651332
vt 0.819710 0.651332
vt 0.221621 0.617582
vt 0.231981 0.617582
vt 0.248283 0.633883
vt 0.248283 0.879167
vt 0.221621 0.879167
vt 0.216753 0.781027
vt 0.191412 0.786548
vt 0.113252 0.627432
vt 0.117108 0.619445
vt 0.125663 0.617582
vt 0.139824 0.624419
vt 0.253409 0.633883
vt 0.269711 0.617582
vt 0.280071 0.617582
vt 0.280071 0.879167
vt 0.253409 0.879167
vt 0.083043 0.617581
vt 0.108383 0.623102
vt 0.031455 0.779710
vt 0.017294 0.786547
vt 0.008739 0.784684
vt 0.004883 0.776697
vt 0.554916 0.651282
vt 0.603935 0.651282
vt 0.603935 0.775167
vt 0.554916 0.775167
vt 0.134336 0.809124
vt 0.085317 0.809124
vt 0.085317 0.685239
vt 0.134336 0.685239
vt 0.500973 0.651282
vt 0.549992 0.651282
vt 0.549992 0.775167
vt 0.500973 0.775167
vt 0.957941 0.748554
vt 0.908922 0.748554
vt 0.908922 0.624669
vt 0.957941 0.624669
vt 0.285198 0.617582
vt 0.334217 0.617582
vt 0.334217 0.741467
vt 0.285198 0.741467
vt 0.388160 0.741467
vt 0.339141 0.741467
vt 0.339141 0.617582
vt 0.388160 0.617582
vt 0.393085 0.617582
vt 0.442104 0.617582
vt 0.442104 0.741467
vt 0.393085 0.741467
vt 0.496048 0.741467
vt 0.447029 0.741467
vt 0.447029 0.617582
vt 0.496048 0.617582
vt 0.266468 0.004883
vt 0.266468 0.612718
vt 0.004883 0.612718
vt 0.004883 0.004883
vt 0.516996 0.612718
vt 0.271712 0.612718
vt 0.271712 0.004883
vt 0.516995 0.004883
vt 0.971535 0.004883
vt 0.980416 0.004883
vt 0.980416 0.635891
vt 0.971535 0.635891
vt 0.995117 0.004883
vt 0.995117 0.635891
vt 0.940710 0.004883
vt 0.966346 0.004883
vt 0.966346 0.619805
vt 0.940710 0.619805
vt 0.500973 0.829050
vt 0.500973 0.780031
vt 0.549991 0.780031
vt 0.549991 0.829050
vt 0.657879 0.780031
vt 0.657879 0.829050
vt 0.608860 0.829050
vt 0.608860 0.780031
vt 0.603935 0.829050
vt 0.554916 0.829050
vt 0.554916 0.780031
vt 0.603935 0.780031
vt 0.496048 0.746331
vt 0.496048 0.795350
vt 0.447029 0.795350
vt 0.447029 0.746331
vt 0.932522 0.802437
vt 0.932522 0.753418
vt 0.981541 0.753418
vt 0.981541 0.802437
vt 0.139261 0.791411
vt 0.188279 0.791411
vt 0.188279 0.840430
vt 0.139261 0.840430
vt 0.927598 0.802437
vt 0.878579 0.802437
vt 0.878579 0.753418
vt 0.927598 0.753418
vt 0.031373 0.786938
vt 0.080392 0.786938
vt 0.080392 0.835957
vt 0.031373 0.835957
vn -0.000000 -1.000000 0.000000
vn -0.000000 -1.000000 0.000000
vn -0.000000 -1.000000 0.000000
vn -0.000000 -1.000000 0.000000
vn -0.000001 -0.000004 1.000000
vn -0.000001 -0.000004 1.000000
vn -0.000001 -0.000004 1.000000
vn -0.000001 -0.000004 1.000000
vn -0.000001 -0.000004 1.000000
vn 0.000000 1.000000 -0.000000
vn 0.000000 1.000000 -0.000000
vn 0.000000 1.000000 -0.000000
vn 0.000000 1.000000 -0.000000
vn -1.000000 -0.000002 -0.000000
vn -1.000000 -0.000002 -0.000000
vn -1.000000 -0.000002 -0.000000
vn -1.000000 -0.000002 -0.000000
vn 1.000000 0.000001 0.000000
vn 1.000000 0.000001 0.000000
vn 1.000000 0.000001 0.000000
vn 1.000000 0.000001 0.000000
vn -0.212865 0.977082 -0.000000
vn -0.212865 0.977082 -0.000000
vn -0.212865 0.977082 -0.000000
vn -0.212865 0.977082 -0.000000
vn 0.000005 0.000001 -1.000000
vn 0.000005 0.000001 -1.000000
vn 0.000005 0.000001 -1.000000
vn 0.000005 0.000001 -1.000000
vn 0.000005 0.000001 -1.000000
vn 0.000005 0.000001 -1.000000
vn 0.212864 -0.977082 0.000000
vn 0.212864 -0.977082 0.000000
vn 0.212864 -0.977082 0.000000
vn 0.212864 -0.977082 0.000000
vn 0.897558 0.440896 -0.000000
vn 0.897558 0.440896 -0.000000
vn 0.897558 0.440896 -0.000000
vn 0.897558 0.440896 -0.000000
vn 0.707107 0.707107 0.000000
vn 0.707107 0.707107 0.000000
vn 0.707107 0.707107 0.000000
vn 0.707107 0.707107 0.000000
vn 0.000001 0.000004 -1.000000
vn 0.000001 0.000004 -1.000000
vn 0.000001 0.000004 -1.000000
vn 0.000001 0.000004 -1.000000
vn 0.000001 0.000004 -1.000000
vn 0.434824 0.900515 -0.000000
vn 0.434824 0.900515 -0.000000
vn 0.434824 0.900515 -0.000000
vn 0.434824 0.900515 -0.000000
vn -0.897558 -0.440896 0.000000
vn -0.897558 -0.440896 0.000000
vn -0.897558 -0.440896 0.000000
vn -0.897558 -0.440896 0.000000
vn -0.900514 0.434828 -0.000000
vn -0.900514 0.434828 -0.000000
vn -0.900514 0.434828 -0.000000
vn -0.900514 0.434828 -0.000000
vn -0.000003 -0.000001 1.000000
vn -0.000003 -0.000001 1.000000
vn -0.000003 -0.000001 1.000000
vn -0.000003 -0.000001 1.000000
vn -0.000003 -0.000001 1.000000
vn -0.000003 -0.000001 1.000000
vn -1.000000 0.000000 -0.000000
vn -1.000000 0.000000 -0.000000
vn -1.000000 0.000000 -0.000000
vn -1.000000 0.000000 -0.000000
vn 0.000000 -0.000000 -1.000000
vn 0.000000 -0.000000 -1.000000
vn 0.000000 -0.000000 -1.000000
vn 0.000000 -0.000000 -1.000000
vn 1.000000 0.000000 0.000000
vn 1.000000 0.000000 0.000000
vn 1.000000 0.000000 0.000000
vn 1.000000 0.000000 0.000000
vn 0.000000 0.000000 1.000000
vn 0.000000 0.000000 1.000000
vn 0.000000 0.000000 1.000000
vn 0.000000 0.000000 1.000000
vn 0.000000 -1.000000 0.000000
vn 0.000000 -1.000000 0.000000
vn 0.000000 -1.000000 0.000000
vn 0.000000 -1.000000 0.000000
vn 0.000000 1.000000 -0.000000
vn 0.000000 1.000000 -0.000000
vn 0.000000 1.000000 -0.000000
vn 0.000000 1.000000 -0.000000
vn -1.000000 0.000000 -0.000000
vn -1.000000 0.000000 -0.000000
vn -1.000000 0.000000 -0.000000
vn -1.000000 0.000000 -0.000000
vn 0.000000 -0.000000 -1.000000
vn 0.000000 -0.000000 -1.000000
vn 0.000000 -0.000000 -1.000000
vn 0.000000 -0.000000 -1.000000
vn 1.000000 0.000000 0.000000
vn 1.000000 0.000000 0.000000
vn 1.000000 0.000000 0.000000
vn 1.000000 0.000000 0.000000
vn 0.000000 0.000000 1.000000
vn 0.000000 0.000000 1.000000
vn 0.000000 0.000000 1.000000
vn 0.000000 0.000000 1.000000
vn 0.000000 -1.000000 0.000000
vn 0.000000 -1.000000 0.000000
vn 0.000000 -1.000000 0.000000
vn 0.000000 -1.000000 0.000000
vn 0.000000 1.000000 -0.000000
vn 0.000000 1.000000 -0.000000
vn 0.000000 1.000000 -0.000000
vn 0.000000 1.000000 -0.000000
vn -1.000000 0.000000 -0.000000
vn -1.000000 0.000000 -0.000000
vn -1.000000 0.000000 -0.000000
vn -1.000000 0.000000 -0.000000
vn 0.000000 -0.000000 -1.000000
vn 0.000000 -0.000000 -1.000000
vn 0.000000 -0.000000 -1.000000
vn 0.000000 -0.000000 -1.000000
vn 1.000000 0.000000 0.000000
vn 1.000000 0.000000 0.000000
vn 1.000000 0.000000 0.000000
vn 1.000000 0.000000 0.000000
vn 0.000000 0.000000 1.000000
vn 0.000000 0.000000 1.000000
vn 0.000000 0.000000 1.000000
vn 0.000000 0.000000 1.000000
vn 0.000000 -1.000000 0.000000
vn 0.000000 -1.000000 0.000000
vn 0.000000 -1.000000 0.000000
vn 0.000000 -1.000000 0.000000
vn 0.000000 1.000000 -0.000000
vn 0.000000 1.000000 -0.000000
vn 0.000000 1.000000 -0.000000
vn 0.000000 1.000000 -0.000000
vn -1.000000 0.000000 -0.000000
vn -1.000000 0.000000 -0.000000
vn -1.000000 0.000000 -0.000000
vn -1.000000 0.000000 -0.000000
vn 0.000000 -0.000000 -1.000000
vn 0.000000 -0.000000 -1.000000
vn 0.000000 -0.000000 -1.000000
vn 0.000000 -0.000000 -1.000000
vn 1.000000 0.000000 0.000000
vn 1.000000 0.000000 0.000000
vn 1.000000 0.000000 0.000000
vn 1.000000 0.000000 0.000000
vn 0.000000 0.000000 1.000000
vn 0.000000 0.000000 1.000000
vn 0.000000 0.000000 1.000000
vn 0.000000 0.000000 1.000000
vn 0.000000 -1.000000 0.000000
vn 0.000000 -1.000000 0.000000
vn 0.000000 -1.000000 0.000000
vn 0.000000 -1.000000 0.000000
vn 0.000000 1.000000 -0.000000
vn 0.000000 1.000000 -0.000000
vn 0.000000 1.000000 -0.000000
vn 0.000000 1.000000 -0.000000
s off
g Bench
usemtl aiStandardSurface32SG
f 1/107/1 2/108/2 3/109/3 4/110/4
f 2/53/5 13/54/6 14/55/7 5/56/8 3/57/9
f 11/111/10 6/112/11 5/113/12 14/114/13
f 3/1/14 5/2/15 6/3/16 4/4/17
f 1/5/18 12/6/19 13/7/20 2/8/21
f 19/115/22 16/116/23 17/117/24 22/118/25
f 9/58/26 7/59/27 21/60/28 22/61/29 17/62/30 18/63/31
f 7/121/32 9/122/33 10/123/34 8/124/35
f 9/11/36 18/12/37 15/13/38 10/14/39
f 11/9/40 14/10/41 13/7/42 12/6/43
f 11/64/44 12/65/45 1/66/46 4/67/47 6/68/48
f 15/119/49 18/120/50 17/117/51 16/116/52
f 7/15/53 8/16/54 20/17/55 21/18/56
f 19/19/57 22/20/58 21/18/59 20/17/60
f 8/69/61 10/70/62 15/71/63 16/72/64 19/73/65 20/74/66
f 27/21/67 28/22/68 24/23/69 23/24/70
f 28/75/71 29/76/72 25/77/73 24/78/74
f 29/25/75 30/26/76 26/27/77 25/28/78
f 30/79/79 27/80/80 23/81/81 26/82/82
f 23/125/83 24/126/84 25/127/85 26/128/86
f 30/129/87 29/130/88 28/131/89 27/132/90
f 35/29/91 36/30/92 32/31/93 31/32/94
f 36/83/95 37/84/96 33/85/97 32/86/98
f 37/33/99 38/34/100 34/35/101 33/36/102
f 38/87/103 35/88/104 31/89/105 34/90/106
f 31/133/107 32/134/108 33/135/109 34/136/110
f 38/137/111 37/138/112 36/139/113 35/140/114
f 43/37/115 44/38/116 40/39/117 39/40/118
f 44/91/119 45/92/120 41/93/121 40/94/122
f 45/41/123 46/42/124 42/43/125 41/44/126
f 46/95/127 43/96/128 39/97/129 42/98/130
f 39/141/131 40/142/132 41/143/133 42/144/134
f 46/145/135 45/146/136 44/147/137 43/148/138
f 51/45/139 52/46/140 48/47/141 47/48/142
f 52/99/143 53/100/144 49/101/145 48/102/146
f 53/49/147 54/50/148 50/51/149 49/52/150
f 54/103/151 51/104/152 47/105/153 50/106/154
f 47/149/155 48/150/156 49/151/157 50/152/158
f 54/153/159 53/154/160 52/155/161 51/156/162
