# This file uses centimeters as units for non-parametric coordinates.

mtllib tire_02.mtl
g default
v 0.127273 0.005605 -0.153167
v 0.191277 0.005605 0.131036
v -0.179300 0.005605 0.172318
v -0.182129 0.005605 -0.154020
v 0.092004 2.088627 -0.096506
v 0.092004 2.088627 0.095767
v -0.100269 2.088627 0.095767
v -0.100269 2.088627 -0.096506
v 0.530688 9.685589 -0.669534
v 0.003459 9.909623 -0.751109
v 0.003459 1.572455 -0.634159
v 0.272054 4.321656 -1.198657
v 0.447992 1.572455 -0.450027
v 1.361251 4.972837 -0.781457
v 0.632124 1.572455 -0.005494
v 1.196621 4.518385 -0.005495
v 0.447992 1.572456 0.439039
v 1.163718 4.518385 0.920866
v 0.003459 1.572456 0.623171
v 0.253325 3.476040 1.187668
v -0.441074 1.572455 0.439039
v -0.840234 3.483185 1.023118
v -0.625206 1.572455 -0.005494
v -1.409962 4.900033 0.138745
v -0.441074 1.572455 -0.450027
v -0.992271 4.120398 -0.849187
v 1.054674 9.909623 -0.005496
v 0.711664 9.524326 0.711404
v 0.003459 9.909623 1.032965
v -0.715351 9.975393 0.678204
v -0.742155 9.909623 -0.211265
v -0.523770 9.547372 -0.532724
v 0.003460 11.906253 -0.005496
vt 0.437909 0.596964
vt 0.734766 0.021102
vt 0.108027 0.851922
vt 0.839814 0.710882
vt 0.959682 0.719507
vt 0.324471 0.530668
vt 0.120854 0.725541
vt 0.228708 0.597520
vt 0.735874 0.505267
vt 0.735874 0.827950
vt 0.533698 0.591917
vt 0.350817 0.785850
vt 0.542144 0.462441
vt 0.200635 0.609482
vt 0.295575 0.494381
vt 0.588801 0.968258
vt 0.597228 0.778141
vt 0.614363 0.778088
vt 0.112104 0.751711
vt 0.545281 0.546655
vt 0.571155 0.543722
vt 0.130125 0.789685
vt 0.158321 0.606145
vt 0.876078 0.326780
vt 0.237154 0.761218
vt 0.645186 0.584476
vt 0.363320 0.596625
vt 0.930779 0.248936
vt 0.907208 0.719507
vt 0.907438 0.505267
vt 0.915655 0.908718
vt 0.926455 0.677360
vt 0.884524 0.046254
vt 0.004223 0.851922
vt 0.726319 0.004824
vt 0.004223 0.895827
vt 0.884524 0.441304
vt 0.465533 0.041114
vt 0.834760 0.004393
vt 0.622097 0.968258
vt 0.958768 0.194530
vt 0.965546 0.004318
vt 0.982728 0.004313
vt 0.987930 0.194530
vt 0.992639 0.719508
vt 0.995777 0.909652
vt 0.636739 0.037244
vt 0.564852 0.846638
vt 0.350817 0.135433
vt 0.533698 0.004313
vt 0.876078 0.004313
vt 0.645186 0.004313
vt 0.227621 0.004313
vt 0.437909 0.004313
vt 0.602331 0.004313
vt 0.342370 0.004313
vt 0.122252 0.004313
vt 0.803305 0.004313
vt 0.950321 0.004313
vt 0.446355 0.499658
vt 0.968128 0.909652
vt 0.975457 0.719507
vt 0.831368 0.505267
vt 0.839814 0.913564
vt 0.918009 0.710882
vt 0.959682 0.936407
vt 0.960751 0.485141
vt 0.588801 0.581246
vt 0.636739 0.543722
vt 0.519635 0.600542
vt 0.739359 0.456485
vt 0.157144 0.010616
vt 0.004223 0.812251
vt 0.044105 0.535304
vt 0.004223 0.526679
vt 0.803305 0.495210
vt 0.094922 0.734166
vt 0.094922 0.725541
vt 0.098984 0.535430
vt 0.077623 0.926872
vt 0.122252 0.516394
vt 0.726319 0.496642
vt 0.656619 0.462889
vt 0.964261 0.441304
vt 0.950321 0.240311
vt 0.034627 0.820876
vt 0.034627 0.926872
vt 0.130125 0.995687
vt 0.811752 0.276814
vt 0.693868 0.836876
vt 0.185648 0.798310
vt 0.907208 0.955505
vt 0.960751 0.710882
vt 0.636739 0.769463
vt 0.108027 0.895827
vt 0.420857 0.612534
vt 0.420857 0.892576
vt 0.378793 0.605589
vt 0.636739 0.535097
vt 0.228708 0.789685
vt 0.342370 0.516407
vt 0.788697 0.819693
vt 0.744321 0.639449
vt 0.282083 0.525032
vt 0.562032 0.606056
vt 0.571155 0.577745
vt 0.542144 0.574705
vt 0.112104 0.734166
vt 0.094922 0.751711
vt 0.069214 0.033271
vt 0.237154 0.061718
vt 0.446355 0.846638
vt 0.130699 0.597520
vt 0.085837 0.538732
vt 0.086475 0.812251
vt 0.116012 0.535304
vt 0.201996 0.995687
vt 0.077623 0.820876
vt 0.324471 0.842875
vt 0.831367 0.817472
vn -0.000000 -1.000000 0.000000
vn -0.000000 -1.000000 0.000000
vn -0.000000 -1.000000 0.000000
vn -0.000000 -1.000000 0.000000
vn -0.000001 1.000000 -0.000000
vn -0.000001 1.000000 -0.000000
vn -0.000001 1.000000 -0.000000
vn -0.000001 1.000000 -0.000000
vn 0.990569 0.032673 -0.133060
vn 0.990569 0.032673 -0.133060
vn 0.990569 0.032673 -0.133060
vn 0.990569 0.032673 -0.133060
vn 0.073121 0.027114 0.996954
vn 0.073121 0.027114 0.996954
vn 0.073121 0.027114 0.996954
vn 0.073121 0.027114 0.996954
vn -0.999239 0.038615 0.005451
vn -0.999239 0.038615 0.005451
vn -0.999239 0.038615 0.005451
vn -0.999239 0.038615 0.005451
vn 0.001698 0.027377 -0.999624
vn 0.001698 0.027377 -0.999624
vn 0.001698 0.027377 -0.999624
vn 0.001698 0.027377 -0.999624
vn 0.969894 0.060165 0.235980
vn 0.969894 0.060165 0.235980
vn 0.969894 0.060165 0.235980
vn 0.969894 0.060165 0.235980
vn 0.433123 -0.210909 -0.876312
vn 0.433123 -0.210909 -0.876312
vn 0.433123 -0.210909 -0.876312
vn 0.433123 -0.210909 -0.876312
vn 0.323245 0.049917 0.944998
vn 0.323245 0.049917 0.944998
vn 0.323245 0.049917 0.944998
vn 0.323245 0.049917 0.944998
vn 0.967749 -0.230635 -0.101340
vn 0.967749 -0.230635 -0.101340
vn 0.967749 -0.230635 -0.101340
vn 0.967749 -0.230635 -0.101340
vn -0.274005 0.034500 0.961109
vn -0.274005 0.034500 0.961109
vn -0.274005 0.034500 0.961109
vn -0.274005 0.034500 0.961109
vn 0.963111 -0.221740 0.152476
vn 0.963111 -0.221740 0.152476
vn 0.963111 -0.221740 0.152476
vn 0.963111 -0.221740 0.152476
vn -0.922594 0.086301 0.375996
vn -0.922594 0.086301 0.375996
vn -0.922594 0.086301 0.375996
vn -0.922594 0.086301 0.375996
vn 0.487832 -0.275827 0.828214
vn 0.487832 -0.275827 0.828214
vn 0.487832 -0.275827 0.828214
vn 0.487832 -0.275827 0.828214
vn -0.861680 0.092214 -0.499004
vn -0.861680 0.092214 -0.499004
vn -0.861680 0.092214 -0.499004
vn -0.861680 0.092214 -0.499004
vn -0.212908 -0.289354 0.933244
vn -0.212908 -0.289354 0.933244
vn -0.212908 -0.289354 0.933244
vn -0.212908 -0.289354 0.933244
vn 0.274193 0.081303 -0.958232
vn 0.274193 0.081303 -0.958232
vn 0.274193 0.081303 -0.958232
vn 0.274193 0.081303 -0.958232
vn -0.931993 -0.247466 0.264857
vn -0.931993 -0.247466 0.264857
vn -0.931993 -0.247466 0.264857
vn -0.931993 -0.247466 0.264857
vn -0.321695 0.071326 -0.944153
vn -0.321695 0.071326 -0.944153
vn -0.321695 0.071326 -0.944153
vn -0.321695 0.071326 -0.944153
vn -0.272792 -0.186263 -0.943870
vn -0.272792 -0.186263 -0.943870
vn -0.272792 -0.186263 -0.943870
vn -0.272792 -0.186263 -0.943870
vn -0.936009 -0.224585 -0.271013
vn -0.936009 -0.224585 -0.271013
vn -0.936009 -0.224585 -0.271013
vn -0.936009 -0.224585 -0.271013
vn 0.969275 0.095802 -0.226555
vn 0.969275 0.095802 -0.226555
vn 0.969275 0.095802 -0.226555
vn 0.969275 0.095802 -0.226555
vn -0.000000 -1.000000 0.000000
vn -0.000000 -1.000000 0.000000
vn -0.000000 -1.000000 0.000000
vn -0.000000 -1.000000 0.000000
vn -0.000000 -1.000000 0.000000
vn -0.000000 -1.000000 0.000000
vn -0.000000 -1.000000 0.000000
vn -0.000000 -1.000000 0.000000
vn -0.367892 0.429067 0.824959
vn -0.367892 0.429067 0.824959
vn -0.367892 0.429067 0.824959
vn -0.936888 0.349622 0.002380
vn -0.936888 0.349622 0.002380
vn -0.936888 0.349622 0.002380
vn 0.733835 0.386359 0.558760
vn 0.733835 0.386359 0.558760
vn 0.733835 0.386359 0.558760
vn 0.672408 0.354019 -0.650030
vn 0.672408 0.354019 -0.650030
vn 0.672408 0.354019 -0.650030
vn 0.281714 0.335670 -0.898868
vn 0.281714 0.335670 -0.898868
vn 0.281714 0.335670 -0.898868
vn 0.547258 0.386198 0.742536
vn 0.547258 0.386198 0.742536
vn 0.547258 0.386198 0.742536
vn -0.597497 0.299775 -0.743729
vn -0.597497 0.299775 -0.743729
vn -0.597497 0.299775 -0.743729
vn -0.532074 0.296208 -0.793195
vn -0.532074 0.296208 -0.793195
vn -0.532074 0.296208 -0.793195
s off
g Fir
usemtl aiStandardSurface29SG
f 1/20/1 2/21/2 3/106/3 4/107/4
f 5/108/5 8/19/6 7/109/7 6/77/8
f 1/78/9 5/79/10 6/116/11 2/7/12
f 2/16/13 6/17/14 7/18/15 3/40/16
f 3/41/17 7/42/18 8/43/19 4/44/20
f 5/45/21 1/46/22 4/61/23 8/62/24
f 18/52/25 16/35/26 27/82/27 28/83/28
f 11/90/29 12/26/30 14/9/31 13/10/32
f 20/11/33 18/60/34 28/38/35 29/50/36
f 13/51/37 14/24/38 16/89/39 15/39/40
f 22/8/41 20/113/42 29/72/43 30/53/44
f 15/114/45 16/115/46 18/73/47 17/74/48
f 24/49/49 22/54/50 30/1/51 31/27/52
f 17/96/53 18/97/54 20/12/55 19/98/56
f 26/99/57 24/13/58 31/55/59 32/47/60
f 19/14/61 20/100/62 22/22/63 21/23/64
f 14/111/65 12/56/66 10/101/67 9/15/68
f 21/102/69 22/103/70 24/63/71 23/120/72
f 12/81/73 26/75/74 32/110/75 10/57/76
f 25/105/77 26/48/78 12/112/79 11/70/80
f 23/6/81 24/119/82 26/25/83 25/104/84
f 16/76/85 14/71/86 9/2/87 27/58/88
f 11/34/89 13/86/90 15/118/91 17/3/92 19/95/93 21/80/94 23/87/95 25/36/96
f 30/117/97 29/88/98 33/91/99
f 31/84/100 30/37/101 33/28/102
f 28/92/103 27/64/104 33/29/105
f 27/65/106 9/4/107 33/30/108
f 9/66/109 10/31/110 33/5/111
f 29/33/112 28/59/113 33/85/114
f 32/93/115 31/32/116 33/67/117
f 10/68/118 32/69/119 33/94/120
