# This file uses centimeters as units for non-parametric coordinates.

mtllib snow_ball_7.mtl
g default
v -1.434654 -0.914807 1.060426
v -0.478495 -1.379650 0.901716
v 1.775397 -1.403571 0.342019
v -1.814790 0.776718 0.892857
v -0.342123 -0.160936 0.657888
v 1.916100 -0.564921 0.501190
v -1.379693 1.311824 0.870747
v -0.198718 0.708899 0.567754
v 2.275580 0.372917 0.566906
v -1.624707 1.574390 0.535823
v -0.091771 0.470508 -0.030662
v 2.275580 0.663964 0.427493
v -1.624707 1.574390 -0.543619
v -0.178727 0.369908 -0.807069
v 2.275580 0.582596 -0.058195
v -2.167163 0.776718 -0.282035
v 0.172183 -0.736610 -1.060426
v 2.074885 -0.567566 -0.186139
v -1.434654 -0.914807 -0.284258
v 0.143917 -1.574390 -0.898702
v 1.775397 -1.403571 -0.099555
v -1.434654 -0.914807 0.353277
v 0.050156 -1.494587 -0.358110
v 1.775397 -1.403571 0.152868
v 2.074885 -0.598166 0.129310
v -2.275580 0.776718 0.519104
v 0.879250 -1.394060 0.564555
v 1.089441 -1.439759 -0.358110
v 1.126721 -1.471489 -0.725110
v 1.318371 -0.634778 -0.841569
v 1.299747 0.498031 -0.663761
v 1.334321 0.587046 -0.062483
v 1.291799 0.681830 0.655543
v 0.622674 -0.404296 0.345479
vt 0.442670 0.811338
vt 0.464810 0.811338
vt 0.472403 0.884662
vt 0.444735 0.881978
vt 0.519675 0.805381
vt 0.529889 0.878768
vt 0.461181 0.985539
vt 0.418583 0.992676
vt 0.426079 0.811338
vt 0.412120 0.884894
vt 0.514295 0.978123
vt 0.406356 0.967149
vt 0.078751 0.445710
vt 0.137420 0.445710
vt 0.152680 0.601373
vt 0.078955 0.601373
vt 0.202495 0.445710
vt 0.187075 0.601373
vt 0.154218 0.674779
vt 0.054883 0.674779
vt 0.007324 0.462109
vt 0.022207 0.385012
vt 0.185040 0.650616
vt 0.485121 0.599715
vt 0.423359 0.602576
vt 0.430983 0.536379
vt 0.442975 0.536379
vt 0.430911 0.702870
vt 0.482384 0.695672
vt 0.536844 0.602041
vt 0.484753 0.536379
vt 0.549171 0.701523
vt 0.404847 0.782332
vt 0.433656 0.798818
vt 0.526509 0.798818
vt 0.301284 0.849474
vt 0.251141 0.748706
vt 0.295257 0.754691
vt 0.353310 0.849474
vt 0.265308 0.685967
vt 0.295257 0.688347
vt 0.398065 0.788437
vt 0.411018 0.849474
vt 0.316357 0.644558
vt 0.336956 0.644558
vt 0.370552 0.701765
vt 0.352391 0.644558
vt 0.440435 0.520875
vt 0.402694 0.460147
vt 0.501644 0.451486
vt 0.577776 0.545019
vt 0.401523 0.373913
vt 0.481885 0.390209
vt 0.572269 0.442378
vt 0.621223 0.517385
vt 0.400751 0.316996
vt 0.468844 0.308060
vt 0.570071 0.347711
vt 0.544990 0.285228
vt 0.515345 0.007324
vt 0.607039 0.104963
vt 0.629291 0.194666
vt 0.480945 0.071989
vt 0.700794 0.094577
vt 0.701975 0.186409
vt 0.689822 0.254241
vt 0.627499 0.262582
vn 0.245064 0.155797 0.956907
vn 0.263808 0.181841 0.947280
vn 0.210284 0.076545 0.974639
vn 0.219713 0.069662 0.973074
vn 0.119390 0.008711 0.992809
vn 0.164794 0.127311 0.978077
vn 0.033190 0.034828 0.998842
vn -0.024044 -0.079744 0.996525
vn 0.136481 -0.072715 0.987970
vn 0.197102 -0.002834 0.980379
vn -0.011340 -0.148941 0.988781
vn -0.060482 -0.152414 0.986464
vn 0.518971 0.853042 -0.054675
vn 0.276074 0.949039 -0.152014
vn 0.308639 0.942007 -0.131775
vn 0.577713 0.813494 -0.066905
vn -0.025694 0.990199 -0.137277
vn 0.001312 0.992788 -0.119877
vn 0.070005 0.971638 0.225874
vn 0.042713 0.997193 0.061496
vn 0.383073 0.918579 -0.097306
vn 0.598477 0.797961 -0.071297
vn -0.059926 0.989041 -0.134932
vn 0.005377 0.987896 -0.155025
vn -0.251202 0.021088 -0.967705
vn -0.146881 0.076330 -0.986205
vn -0.173226 -0.052704 -0.983471
vn -0.308101 -0.044110 -0.950330
vn 0.379673 0.003587 -0.925114
vn 0.350721 0.142239 -0.925615
vn 0.583835 0.061854 -0.809513
vn 0.618378 -0.049908 -0.784294
vn -0.236812 -0.183196 -0.954128
vn -0.413041 -0.171409 -0.894436
vn 0.399998 -0.232072 -0.886648
vn 0.661492 -0.278738 -0.696228
vn -0.362035 -0.931534 0.034287
vn -0.180377 -0.980478 0.078273
vn -0.168675 -0.984285 0.052270
vn -0.395431 -0.918053 -0.028527
vn 0.034573 -0.995880 0.083829
vn 0.059226 -0.991552 0.115399
vn 0.032642 -0.998056 0.053089
vn 0.013004 -0.998925 0.044505
vn -0.277884 -0.960527 -0.013017
vn -0.409896 -0.910351 -0.056970
vn 0.025271 -0.996761 0.076348
vn 0.009047 -0.999044 0.042774
vn 0.941379 -0.309671 0.133827
vn 0.938845 -0.343842 -0.018528
vn 0.974987 -0.222258 0.001461
vn 0.965840 -0.244814 0.084968
vn 0.922223 -0.269771 0.276997
vn 0.940346 -0.269382 0.207804
vn 0.986081 -0.165935 0.010515
vn 0.979333 -0.195311 0.052532
vn 0.949995 -0.268318 0.159736
vn -0.905906 -0.417940 -0.068268
vn -0.915506 -0.385341 0.115593
vn -0.988636 -0.042956 0.144060
vn -0.996790 0.042731 -0.067703
vn -0.873088 -0.314937 0.372198
vn -0.845401 -0.077785 0.528439
vn -0.780970 0.591838 0.199533
vn -0.803303 0.593768 -0.046311
vn -0.545385 0.447257 0.708884
s 1
g pCube9
usemtl initialShadingGroup
f 1/48/1 2/49/2 5/50/3 4/51/4
f 34/53/5 27/52/6 3/56/7 6/57/8
f 4/51/4 5/50/3 8/54/9 7/55/10
f 33/58/11 34/53/5 6/57/8 9/59/12
s 2
f 7/33/13 8/28/14 11/29/15 10/34/16
f 32/24/17 33/25/18 9/26/19 12/27/20
f 10/34/16 11/29/15 14/32/21 13/35/22
f 31/30/23 32/24/17 12/27/20 15/31/24
s 3
f 13/60/25 14/61/26 17/62/27 16/63/28
f 30/6/29 31/11/30 15/7/31 18/3/32
f 16/16/28 17/21/27 20/22/33 19/13/34
f 29/5/35 30/6/29 18/3/32 21/2/36
s 4
f 19/36/37 20/37/38 23/38/39 22/39/40
f 28/41/41 29/40/42 21/44/43 24/45/44
f 22/39/40 23/38/39 2/42/45 1/43/46
f 27/46/47 28/41/41 24/45/44 3/47/48
s 5
f 24/1/49 21/2/50 18/3/51 25/4/52
f 3/9/53 24/1/49 25/4/52 6/10/54
f 25/4/52 18/3/51 15/7/55 12/8/56
f 6/10/54 25/4/52 12/8/56 9/12/57
s 6
f 19/13/58 22/14/59 26/15/60 16/16/61
f 22/14/59 1/17/62 4/18/63 26/15/60
f 16/16/61 26/15/60 10/19/64 13/20/65
f 26/15/60 4/18/63 7/23/66 10/19/64
s 4
f 23/38/39 28/41/41 27/46/47 2/42/45
f 20/37/38 29/40/42 28/41/41 23/38/39
s 3
f 17/62/27 30/65/29 29/66/35 20/67/33
f 14/61/26 31/64/30 30/65/29 17/62/27
s 2
f 11/29/15 32/24/17 31/30/23 14/32/21
f 8/28/14 33/25/18 32/24/17 11/29/15
s 1
f 5/50/3 34/53/5 33/58/11 8/54/9
f 2/49/2 27/52/6 34/53/5 5/50/3
