# This file uses centimeters as units for non-parametric coordinates.

mtllib road_snow.mtl
g default
v 34.881470 1.693067 807.667088
v 34.881470 1.693067 272.181737
v 34.881470 1.693067 -263.303859
v 34.881470 1.693067 -798.789333
v 27.586060 1.693067 807.667088
v 27.586060 1.693067 -798.789333
v -27.585815 1.693067 807.667088
v -27.585815 1.693067 -798.789333
v -34.881470 1.693067 807.667088
v -34.881470 1.693067 272.181737
v -34.881470 1.693067 -263.303859
v -34.881470 1.693067 -798.789333
v 34.881470 1.693067 111.535985
v -34.881470 1.693067 111.535985
v 34.881470 1.693067 74.051854
v -34.881470 1.693067 74.051854
v 34.881470 1.693067 6.580785
v -34.881470 1.693067 6.580785
v 34.881470 1.693067 -20.407619
v -34.881470 1.693067 -20.407619
v 34.881470 1.693067 -93.276515
v -34.881470 1.693067 -93.276515
v 34.881470 1.693067 -144.284816
v -34.881470 1.693067 -144.284816
v 34.881470 1.693067 -56.842311
v -34.881470 1.693067 -56.842311
v 34.881470 1.693067 -179.990749
v -34.881470 1.693067 -179.990749
v 34.881470 1.693067 -213.316188
v -34.881470 1.693067 -213.316188
v 34.881470 1.693067 -316.852931
v -34.881470 1.693067 -316.852931
v 34.881470 1.693067 -365.046046
v -34.881470 1.693067 -365.046046
v 34.881470 1.693067 -408.420558
v -34.881470 1.693067 -408.420558
v 34.881470 1.693067 -486.494533
v -34.881470 1.693067 -486.494533
v 34.881470 1.693067 -548.953273
v -34.881470 1.693067 -548.953273
v 34.881470 1.693067 -648.887599
v -34.881470 1.693067 -648.887599
v 34.881470 1.693067 -608.913844
v -34.881470 1.693067 -608.913844
v 34.881470 1.693067 -708.848415
v -34.881470 1.693067 -708.848415
v 34.881470 1.693067 -762.812892
v -34.881470 1.693067 -762.812892
v 34.881470 1.693067 159.729466
v -34.881470 1.693067 159.729466
v 34.881470 1.693067 215.955418
v -34.881470 1.693067 215.955418
v 34.881470 1.693067 379.278417
v -34.881470 1.693067 379.278417
v 34.881470 1.693067 464.956395
v -34.881470 1.693067 464.956395
v 34.881470 1.693067 533.498631
v -34.881470 1.693067 533.498631
v 34.881470 1.693067 643.165624
v -34.881470 1.693067 643.165624
v 34.881470 1.693067 758.316747
v -34.881470 1.693067 758.316747
v 34.881470 1.693067 700.741307
v -34.881470 1.693067 700.741307
v 34.881470 1.693067 434.709813
v -34.881470 1.693067 434.709813
v 34.881470 1.693067 383.770360
v -34.881470 1.693067 383.770360
v 34.881470 1.693067 432.772557
v -34.881470 1.693067 432.772557
v 34.881470 1.693067 161.041112
v -34.881470 1.693067 161.040746
v 34.881470 1.693067 214.374730
v -34.881470 1.693067 214.375096
v 34.881470 1.693067 -143.080348
v -34.881470 1.693067 -143.080348
v 34.881470 1.693067 -94.520900
v -34.881470 1.693067 -94.520900
v 34.881470 1.693067 -410.413966
v -34.881470 1.693067 -410.413966
v 34.881470 1.693067 -484.679347
v -34.881470 1.693067 -484.679347
v 34.881470 1.693067 -314.752833
v -34.881470 1.693067 -314.752833
v 34.881470 1.693067 -264.899074
v -34.881470 1.693067 -264.899074
v 34.881470 1.693067 536.626073
v -34.881470 1.693067 536.626073
v 34.881470 1.693067 631.350194
v -34.881470 1.693067 631.350194
vt 0.224588 0.036186
vt 0.224588 0.005882
vt 0.213403 0.005882
vt 0.128825 0.005882
vt 0.117641 0.005882
vt 0.117641 0.036186
vt 0.117641 0.071541
vt 0.117641 0.106895
vt 0.117641 0.114151
vt 0.224588 0.114151
vt 0.224588 0.106895
vt 0.224588 0.071541
vt 0.117641 0.236090
vt 0.117641 0.266180
vt 0.117641 0.268939
vt 0.117641 0.334703
vt 0.117641 0.369229
vt 0.117641 0.370200
vt 0.224588 0.370200
vt 0.224588 0.369229
vt 0.224588 0.334703
vt 0.224588 0.268939
vt 0.224588 0.266180
vt 0.224588 0.236090
vt 0.117641 0.402950
vt 0.117641 0.403755
vt 0.117641 0.433349
vt 0.117641 0.456367
vt 0.117641 0.497798
vt 0.117641 0.514370
vt 0.117641 0.536743
vt 0.117641 0.559116
vt 0.117641 0.559880
vt 0.224588 0.559880
vt 0.224588 0.559116
vt 0.224588 0.536743
vt 0.224588 0.514370
vt 0.224588 0.497798
vt 0.224588 0.456366
vt 0.224588 0.433349
vt 0.224588 0.403755
vt 0.224588 0.402950
vt 0.117641 0.589699
vt 0.117641 0.590439
vt 0.117641 0.612364
vt 0.117641 0.632828
vt 0.117641 0.663524
vt 0.117641 0.664503
vt 0.224588 0.664503
vt 0.224588 0.663524
vt 0.224588 0.632828
vt 0.224588 0.612364
vt 0.224588 0.590439
vt 0.224588 0.589699
vt 0.117641 0.753858
vt 0.117641 0.799462
vt 0.224588 0.799462
vt 0.224588 0.753858
vt 0.117641 0.800576
vt 0.117641 0.838930
vt 0.117641 0.875749
vt 0.117641 0.900296
vt 0.117641 0.937115
vt 0.117641 0.970253
vt 0.117641 0.992345
vt 0.128825 0.992345
vt 0.213403 0.992345
vt 0.224588 0.992345
vt 0.224588 0.970253
vt 0.224588 0.937115
vt 0.224588 0.900296
vt 0.224588 0.875749
vt 0.224588 0.838930
vt 0.224588 0.800576
vt 0.117641 0.695116
vt 0.117641 0.696406
vt 0.117641 0.725999
vt 0.117641 0.752634
vt 0.224588 0.752634
vt 0.224588 0.725999
vt 0.224588 0.696406
vt 0.224588 0.695116
vt 0.117641 0.172317
vt 0.117641 0.174238
vt 0.117641 0.216327
vt 0.117641 0.234900
vt 0.224588 0.234900
vt 0.224588 0.216327
vt 0.224588 0.174238
vt 0.224588 0.172317
vn 0.000000 1.000000 0.000000
vn 0.000000 1.000000 0.000000
vn 0.000000 1.000000 0.000000
vn 0.000000 1.000000 0.000000
vn 0.000000 1.000000 0.000000
vn 0.000000 1.000000 0.000000
vn 0.000000 1.000000 0.000000
vn 0.000000 1.000000 0.000000
vn 0.000000 1.000000 0.000000
vn 0.000000 1.000000 0.000000
vn 0.000000 1.000000 0.000000
vn 0.000000 1.000000 0.000000
vn 0.000000 1.000000 0.000000
vn 0.000000 1.000000 0.000000
vn 0.000000 1.000000 0.000000
vn 0.000000 1.000000 0.000000
vn 0.000000 1.000000 0.000000
vn 0.000000 1.000000 0.000000
vn 0.000000 1.000000 0.000000
vn 0.000000 1.000000 0.000000
vn 0.000000 1.000000 0.000000
vn 0.000000 1.000000 0.000000
vn 0.000000 1.000000 0.000000
vn 0.000000 1.000000 0.000000
vn 0.000000 1.000000 0.000000
vn 0.000000 1.000000 0.000000
vn 0.000000 1.000000 0.000000
vn 0.000000 1.000000 0.000000
vn 0.000000 1.000000 0.000000
vn 0.000000 1.000000 0.000000
vn 0.000000 1.000000 0.000000
vn 0.000000 1.000000 0.000000
vn 0.000000 1.000000 0.000000
vn 0.000000 1.000000 0.000000
vn 0.000000 1.000000 0.000000
vn 0.000000 1.000000 0.000000
vn 0.000000 1.000000 0.000000
vn 0.000000 1.000000 0.000000
vn 0.000000 1.000000 0.000000
vn 0.000000 1.000000 0.000000
vn 0.000000 1.000000 0.000000
vn 0.000000 1.000000 0.000000
vn 0.000000 1.000000 0.000000
vn 0.000000 1.000000 0.000000
vn 0.000000 1.000000 0.000000
vn 0.000000 1.000000 0.000000
vn 0.000000 1.000000 0.000000
vn 0.000000 1.000000 0.000000
vn 0.000000 1.000000 0.000000
vn 0.000000 1.000000 0.000000
vn 0.000000 1.000000 0.000000
vn 0.000000 1.000000 0.000000
vn 0.000000 1.000000 0.000000
vn 0.000000 1.000000 0.000000
vn 0.000000 1.000000 0.000000
vn 0.000000 1.000000 0.000000
vn 0.000000 1.000000 0.000000
vn 0.000000 1.000000 0.000000
vn 0.000000 1.000000 0.000000
vn 0.000000 1.000000 0.000000
vn 0.000000 1.000000 0.000000
vn 0.000000 1.000000 0.000000
vn 0.000000 1.000000 0.000000
vn 0.000000 1.000000 0.000000
vn 0.000000 1.000000 0.000000
vn 0.000000 1.000000 0.000000
vn 0.000000 1.000000 0.000000
vn 0.000000 1.000000 0.000000
vn 0.000000 1.000000 0.000000
vn 0.000000 1.000000 0.000000
vn 0.000000 1.000000 0.000000
vn 0.000000 1.000000 0.000000
vn 0.000000 1.000000 0.000000
vn 0.000000 1.000000 0.000000
vn 0.000000 1.000000 0.000000
vn 0.000000 1.000000 0.000000
vn 0.000000 1.000000 0.000000
vn 0.000000 1.000000 0.000000
vn 0.000000 1.000000 0.000000
vn 0.000000 1.000000 0.000000
vn 0.000000 1.000000 0.000000
vn 0.000000 1.000000 0.000000
vn 0.000000 1.000000 0.000000
vn 0.000000 1.000000 0.000000
vn 0.000000 1.000000 0.000000
vn 0.000000 1.000000 0.000000
vn 0.000000 1.000000 0.000000
vn 0.000000 1.000000 0.000000
vn 0.000000 1.000000 0.000000
vn 0.000000 1.000000 0.000000
s 1
g snow_road
usemtl House_6:standardSurface1SG
f 61/1/1 63/12/2 59/11/3 89/10/4 90/9/5 60/8/6 64/7/7 62/6/8 9/5/9 7/4/10 5/3/11 1/2/12
f 70/13/13 69/24/14 67/23/15 53/22/16 2/21/17 51/20/18 73/19/19 74/18/20 52/17/21 10/16/22 54/15/23 68/14/24
f 72/25/25 71/42/26 49/41/27 13/40/28 15/39/29 17/38/30 19/37/31 25/36/32 21/35/33 77/34/34 78/33/35 22/32/36 26/31/37 20/30/38 18/29/39 16/28/40 14/27/41 50/26/42
f 74/18/20 73/19/19 71/42/26 72/25/25
f 76/43/43 75/54/44 23/53/45 27/52/46 29/51/47 3/50/48 85/49/49 86/48/50 11/47/51 30/46/52 28/45/53 24/44/54
f 78/33/35 77/34/34 75/54/44 76/43/43
f 80/55/55 79/58/56 81/57/57 82/56/58
f 82/56/58 81/57/57 37/74/59 39/73/60 43/72/61 41/71/62 45/70/63 47/69/64 4/68/65 6/67/66 8/66/67 12/65/68 48/64/69 46/63/70 42/62/71 44/61/72 40/60/73 38/59/74
f 84/75/75 83/82/76 31/81/77 33/80/78 35/79/79 79/58/56 80/55/55 36/78/80 34/77/81 32/76/82
f 86/48/50 85/49/49 83/82/76 84/75/75
f 88/83/83 87/90/84 57/89/85 55/88/86 65/87/87 69/24/14 70/13/13 66/86/88 56/85/89 58/84/90
f 90/9/5 89/10/4 87/90/84 88/83/83
