# This file uses centimeters as units for non-parametric coordinates.

mtllib ıce_ball.mtl
g default
v 5.695437 33.194635 -94.288274
v 6.739543 32.564351 -97.987842
v 3.095629 29.442921 -96.262450
v -0.773909 29.384763 -94.797330
v 2.550908 29.231018 -96.235113
v -1.278858 29.151823 -95.340770
v -4.083034 36.489487 -92.110264
v -3.403808 36.589771 -91.657153
v -1.709588 33.202364 -91.647297
v -1.220499 32.275704 -104.971207
v -1.961956 32.384114 -104.866277
v -5.581995 31.767988 -101.312169
v 4.758642 32.297676 -103.054023
v 3.845347 34.380762 -104.906193
v 0.678627 34.429440 -105.940887
v 0.449708 34.957112 -105.955438
v -4.533121 35.878403 -104.503191
v 7.293851 36.664377 -100.207429
v 4.009431 35.004232 -104.844447
v 2.458444 39.502092 -104.738453
v 1.575802 42.452739 -102.009412
v -1.978747 40.150967 -104.450013
v 4.368727 42.123656 -97.901007
v -0.075387 43.447897 -98.120646
v -7.115601 35.693921 -95.866157
v -6.908215 36.269606 -95.447109
v 5.155675 39.636210 -94.273568
v 7.017349 38.950681 -98.343441
v 2.021096 39.361594 -104.971977
v -5.482008 39.629825 -102.082631
v -7.293851 35.014203 -100.073623
v -5.967614 39.438872 -101.642808
v -6.312201 40.077848 -97.733016
v 4.228531 36.385348 -92.182384
v 1.858883 39.137978 -91.783420
v -5.217333 36.296079 -103.999608
v -5.459395 31.876735 -95.298234
v 1.779868 32.554433 -91.932884
v -0.158596 29.610361 -102.510488
v -3.739061 29.414300 -98.126551
v -5.905673 31.704389 -100.640431
v 2.844338 29.660572 -101.587096
v 5.240766 32.844883 -94.307692
v 1.188783 42.132276 -94.175978
v 1.046292 42.440151 -94.621775
v 0.991449 42.681650 -101.926813
v -2.279377 40.712618 -103.887804
v -6.099275 40.199949 -96.991197
v -3.284098 42.133836 -95.620244
v -2.093912 39.610403 -92.243283
v 1.496263 33.173546 -91.617288
v 1.729263 38.760437 -91.611089
v 3.718490 36.295262 -91.791521
v 6.844988 39.088538 -99.074963
v 2.518842 29.421532 -101.467010
v -4.296637 29.667058 -98.111646
v 0.930774 42.723866 -95.079148
v 6.930076 33.170652 -97.481380
v 5.601858 38.973830 -94.412787
v 3.011106 39.325196 -104.494356
vt 0.456852 0.365130
vt 0.400473 0.250828
vt 0.485931 0.232731
vt 0.492216 0.505023
vt 0.456619 0.380097
vt 0.496297 0.454650
vt 0.643046 0.520111
vt 0.686918 0.597976
vt 0.674631 0.610523
vt 0.454894 0.780600
vt 0.184561 0.424624
vt 0.194078 0.410642
vt 0.224430 0.286453
vt 0.287492 0.301824
vt 0.171421 0.338754
vt 0.068495 0.429943
vt 0.157771 0.333907
vt 0.219391 0.272644
vt 0.317252 0.173273
vt 0.744687 0.958800
vt 0.114333 0.093386
vt 0.137170 0.200660
vt 0.860178 0.781471
vt 0.975717 0.727526
vt 0.622592 0.693403
vt 0.605675 0.697221
vt 0.331961 0.108762
vt 0.939640 0.570922
vt 0.129633 0.213022
vt 0.675876 0.873176
vt 0.688278 0.768277
vt 0.667589 0.856257
vt 0.553666 0.787035
vt 0.828854 0.559142
vt 0.537626 0.140989
vt 0.580793 0.910785
vt 0.535611 0.624328
vt 0.678792 0.434241
vt 0.287844 0.432943
vt 0.368762 0.545106
vt 0.466812 0.759492
vt 0.328071 0.367618
vt 0.489747 0.247830
vt 0.868997 0.679817
vt 0.865980 0.665159
vt 0.875342 0.878642
vt 0.752005 0.934861
vt 0.697075 0.752192
vt 0.778478 0.725528
vt 0.692831 0.452565
vt 0.764513 0.622898
vt 0.819021 0.551843
vt 0.817783 0.476622
vt 0.311188 0.111902
vt 0.329968 0.376105
vt 0.449649 0.637882
vt 0.869705 0.694285
vt 0.407647 0.233876
vt 0.437381 0.071293
vt 0.151802 0.195132
vt 0.510285 0.486327
vt 0.587707 0.300394
vt 0.437654 0.623178
vt 0.473380 0.474084
vt 0.214486 0.558200
vt 0.836623 0.468090
vt 0.567993 0.933739
vt 0.434828 0.047211
vt 0.026793 0.255851
vt 0.270100 0.024012
vt 0.893741 0.884539
vn 0.698816 -0.645943 0.307270
vn 0.698816 -0.645943 0.307270
vn 0.698816 -0.645943 0.307270
vn 0.093649 -0.943635 0.317464
vn 0.093649 -0.943635 0.317464
vn 0.093649 -0.943635 0.317464
vn -0.510753 -0.253063 0.821639
vn -0.510753 -0.253063 0.821639
vn -0.510753 -0.253063 0.821639
vn -0.183533 -0.919952 -0.346417
vn -0.183533 -0.919952 -0.346417
vn -0.183533 -0.919952 -0.346417
vn 0.250764 -0.579519 -0.775419
vn 0.250764 -0.579519 -0.775419
vn 0.250764 -0.579519 -0.775419
vn 0.247134 -0.570541 -0.783204
vn 0.247134 -0.570541 -0.783204
vn 0.247134 -0.570541 -0.783204
vn -0.302908 -0.156394 -0.940100
vn -0.302908 -0.156394 -0.940100
vn -0.302908 -0.156394 -0.940100
vn 0.830402 -0.128733 -0.542089
vn 0.830402 -0.128733 -0.542089
vn 0.830402 -0.128733 -0.542089
vn 0.053267 0.686578 -0.725102
vn 0.053267 0.686578 -0.725102
vn 0.053267 0.686578 -0.725102
vn 0.288951 0.949748 -0.120356
vn 0.288951 0.949748 -0.120356
vn 0.288951 0.949748 -0.120356
vn -0.741352 -0.199389 0.640813
vn -0.741352 -0.199389 0.640813
vn -0.741352 -0.199389 0.640813
vn 0.760598 0.600495 0.246772
vn 0.760598 0.600495 0.246772
vn 0.760598 0.600495 0.246772
vn -0.078057 0.243700 -0.966704
vn -0.078057 0.243700 -0.966704
vn -0.078057 0.243700 -0.966704
vn -0.248698 0.160574 -0.955178
vn -0.248698 0.160574 -0.955178
vn -0.248698 0.160574 -0.955178
vn -0.560294 0.344351 -0.753322
vn -0.560294 0.344351 -0.753322
vn -0.560294 0.344351 -0.753322
vn -0.961717 0.244057 -0.124647
vn -0.961717 0.244057 -0.124647
vn -0.961717 0.244057 -0.124647
vn -0.982654 0.185077 0.011731
vn -0.982654 0.185077 0.011731
vn -0.982654 0.185077 0.011731
vn 0.531734 0.345693 0.773147
vn 0.531734 0.345692 0.773147
vn 0.531734 0.345692 0.773147
vn 0.294144 0.123762 -0.947714
vn 0.294144 0.123762 -0.947714
vn 0.294144 0.123762 -0.947714
vn -0.690406 -0.495604 -0.526987
vn -0.690406 -0.495604 -0.526987
vn -0.690406 -0.495604 -0.526987
vn -0.808620 -0.217912 -0.546487
vn -0.808620 -0.217912 -0.546487
vn -0.808620 -0.217912 -0.546487
vn -0.734693 -0.223470 0.640537
vn -0.734692 -0.223470 0.640537
vn -0.734692 -0.223470 0.640537
vn -0.596965 -0.327911 0.732193
vn -0.596965 -0.327911 0.732193
vn -0.596965 -0.327911 0.732193
vn 0.527867 -0.285304 0.799973
vn 0.527868 -0.285304 0.799973
vn 0.527868 -0.285304 0.799973
vn 0.893334 -0.301286 -0.333439
vn 0.893334 -0.301286 -0.333439
vn 0.893334 -0.301286 -0.333439
vn -0.408191 -0.701722 -0.583923
vn -0.408191 -0.701722 -0.583923
vn -0.408191 -0.701722 -0.583923
vn -0.413014 -0.830187 -0.374446
vn -0.413014 -0.830187 -0.374446
vn -0.413014 -0.830187 -0.374446
vn -0.853324 -0.282894 -0.437959
vn -0.853324 -0.282894 -0.437959
vn -0.853324 -0.282894 -0.437959
vn -0.504235 -0.779398 0.371869
vn -0.504235 -0.779398 0.371869
vn -0.504235 -0.779398 0.371869
vn -0.409185 -0.638300 0.652028
vn -0.409185 -0.638300 0.652028
vn -0.409185 -0.638300 0.652028
vn 0.714725 -0.655099 -0.244978
vn 0.714725 -0.655099 -0.244978
vn 0.714725 -0.655099 -0.244978
vn 0.632402 -0.772202 -0.061410
vn 0.632402 -0.772202 -0.061410
vn 0.632402 -0.772202 -0.061410
vn -0.057063 -0.643691 0.763155
vn -0.057063 -0.643691 0.763155
vn -0.057063 -0.643691 0.763155
vn 0.243668 -0.750963 0.613743
vn 0.243668 -0.750963 0.613743
vn 0.243668 -0.750964 0.613743
vn 0.282424 -0.633015 0.720783
vn 0.282424 -0.633015 0.720783
vn 0.282424 -0.633015 0.720783
vn 0.469106 -0.643404 0.604955
vn 0.469106 -0.643405 0.604955
vn 0.469106 -0.643405 0.604955
vn 0.499609 0.779211 0.378445
vn 0.499609 0.779211 0.378445
vn 0.499609 0.779211 0.378445
vn 0.352402 0.931628 -0.088778
vn 0.352402 0.931628 -0.088778
vn 0.352402 0.931628 -0.088778
vn -0.549250 0.425776 -0.719054
vn -0.549250 0.425776 -0.719054
vn -0.549250 0.425776 -0.719054
vn 0.020004 0.712644 -0.701241
vn 0.020004 0.712644 -0.701241
vn 0.020004 0.712644 -0.701241
vn 0.119954 0.593405 -0.795916
vn 0.119954 0.593405 -0.795916
vn 0.119954 0.593405 -0.795916
vn -0.934099 0.279513 0.222109
vn -0.934098 0.279513 0.222109
vn -0.934099 0.279513 0.222109
vn -0.959887 0.238612 0.147244
vn -0.959887 0.238612 0.147244
vn -0.959887 0.238612 0.147244
vn -0.576141 0.816764 0.030934
vn -0.576141 0.816765 0.030934
vn -0.576142 0.816764 0.030934
vn -0.008492 0.092098 0.995714
vn -0.008492 0.092098 0.995714
vn -0.008492 0.092098 0.995714
vn -0.012440 -0.458634 0.888538
vn -0.012440 -0.458634 0.888538
vn -0.012440 -0.458634 0.888538
vn 0.432944 0.247060 0.866903
vn 0.432945 0.247060 0.866903
vn 0.432944 0.247060 0.866903
vn 0.524209 0.366747 0.768571
vn 0.524209 0.366747 0.768571
vn 0.524209 0.366747 0.768571
vn -0.053494 0.429790 0.901343
vn -0.053494 0.429790 0.901343
vn -0.053494 0.429790 0.901343
vn 0.451378 -0.232404 0.861537
vn 0.451378 -0.232404 0.861537
vn 0.451378 -0.232404 0.861537
vn 0.602506 -0.390036 0.696318
vn 0.602506 -0.390036 0.696318
vn 0.602506 -0.390036 0.696318
vn 0.762383 0.644506 -0.058173
vn 0.762383 0.644506 -0.058173
vn 0.762383 0.644506 -0.058173
vn 0.950159 0.257821 -0.175289
vn 0.950159 0.257821 -0.175289
vn 0.950159 0.257821 -0.175289
vn 0.487086 0.765966 0.419576
vn 0.487086 0.765966 0.419576
vn 0.487086 0.765966 0.419576
vn 0.297693 0.016186 -0.954524
vn 0.297693 0.016186 -0.954524
vn 0.297693 0.016186 -0.954524
vn 0.310254 0.108554 -0.944436
vn 0.310254 0.108554 -0.944436
vn 0.310254 0.108554 -0.944436
vn -0.302075 -0.156976 -0.940271
vn -0.302075 -0.156976 -0.940271
vn -0.302075 -0.156976 -0.940271
vn 0.805483 -0.155348 -0.571895
vn 0.805483 -0.155348 -0.571895
vn 0.805483 -0.155348 -0.571895
vn 0.576231 -0.815044 -0.060510
vn 0.576231 -0.815044 -0.060510
vn 0.576231 -0.815044 -0.060510
vn 0.228985 -0.667668 -0.708369
vn 0.228985 -0.667668 -0.708369
vn 0.228985 -0.667668 -0.708368
vn -0.350359 -0.801461 0.484675
vn -0.350359 -0.801461 0.484675
vn -0.350359 -0.801461 0.484675
vn -0.831559 -0.548555 0.087164
vn -0.831559 -0.548555 0.087164
vn -0.831559 -0.548555 0.087164
vn -0.508253 -0.799317 -0.320580
vn -0.508253 -0.799317 -0.320580
vn -0.508253 -0.799317 -0.320580
vn -0.388581 -0.834114 -0.391482
vn -0.388581 -0.834114 -0.391482
vn -0.388581 -0.834114 -0.391482
vn 0.276828 0.951403 0.134904
vn 0.276828 0.951403 0.134904
vn 0.276828 0.951403 0.134904
vn -0.168307 0.944947 0.280622
vn -0.168307 0.944947 0.280622
vn -0.168307 0.944947 0.280622
vn -0.198474 0.750294 0.630608
vn -0.198474 0.750294 0.630608
vn -0.198474 0.750294 0.630608
vn -0.408834 -0.637425 0.653103
vn -0.408834 -0.637425 0.653103
vn -0.408834 -0.637425 0.653103
vn -0.918088 -0.383340 0.100824
vn -0.918088 -0.383340 0.100824
vn -0.918088 -0.383340 0.100824
vn 0.244137 -0.600699 -0.761287
vn 0.244137 -0.600699 -0.761287
vn 0.244137 -0.600699 -0.761287
vn 0.245602 -0.602927 -0.759051
vn 0.245602 -0.602927 -0.759051
vn 0.245602 -0.602927 -0.759051
vn 0.971657 -0.199780 -0.126378
vn 0.971657 -0.199780 -0.126378
vn 0.971657 -0.199780 -0.126378
vn 0.799495 -0.512690 0.312982
vn 0.799495 -0.512690 0.312982
vn 0.799495 -0.512690 0.312982
vn 0.820458 0.491175 0.292568
vn 0.820458 0.491175 0.292568
vn 0.820458 0.491175 0.292568
vn 0.643480 0.634967 -0.427494
vn 0.643480 0.634967 -0.427494
vn 0.643480 0.634967 -0.427494
vn -0.001093 -0.995680 -0.092849
vn -0.001093 -0.995680 -0.092849
vn -0.001093 -0.995680 -0.092849
vn -0.365618 0.887300 -0.281108
vn -0.365618 0.887300 -0.281108
vn -0.365618 0.887300 -0.281108
vn -0.690914 0.463985 0.554397
vn -0.690914 0.463985 0.554397
vn -0.690914 0.463985 0.554397
vn -0.551119 0.382858 0.741409
vn -0.551119 0.382858 0.741409
vn -0.551119 0.382858 0.741409
vn 0.916479 0.188396 0.352949
vn 0.916479 0.188396 0.352949
vn 0.916479 0.188396 0.352949
vn 0.638418 0.279296 0.717228
vn 0.638418 0.279296 0.717228
vn 0.638418 0.279296 0.717228
vn 0.965107 0.091073 0.245507
vn 0.965107 0.091073 0.245507
vn 0.965107 0.091073 0.245507
vn 0.084634 -0.004635 0.996401
vn 0.084634 -0.004635 0.996401
vn 0.084634 -0.004635 0.996401
vn 0.468528 0.671317 -0.574296
vn 0.468528 0.671317 -0.574296
vn 0.468528 0.671317 -0.574296
vn 0.443886 0.173781 -0.879071
vn 0.443886 0.173781 -0.879071
vn 0.443886 0.173781 -0.879071
vn 0.755520 0.224425 -0.615486
vn 0.755520 0.224425 -0.615486
vn 0.755520 0.224425 -0.615486
vn 0.455105 0.803602 0.383542
vn 0.455105 0.803602 0.383542
vn 0.455105 0.803602 0.383542
vn -0.184671 0.813594 0.551326
vn -0.184671 0.813594 0.551326
vn -0.184671 0.813594 0.551326
vn 0.079393 0.952010 0.295590
vn 0.079393 0.952010 0.295590
vn 0.079393 0.952010 0.295590
vn 0.250146 0.362444 0.897809
vn 0.250146 0.362444 0.897809
vn 0.250146 0.362444 0.897809
vn -0.232514 0.763957 0.601919
vn -0.232514 0.763957 0.601919
vn -0.232514 0.763957 0.601919
vn -0.654129 -0.070996 -0.753044
vn -0.654129 -0.070996 -0.753044
vn -0.654129 -0.070996 -0.753044
vn -0.498491 0.847480 -0.182438
vn -0.498491 0.847480 -0.182438
vn -0.498491 0.847480 -0.182438
vn -0.681376 0.384836 0.622597
vn -0.681376 0.384836 0.622597
vn -0.681376 0.384836 0.622597
vn -0.631474 0.497778 0.594523
vn -0.631474 0.497778 0.594523
vn -0.631474 0.497778 0.594523
vn 0.199467 0.102599 0.974519
vn 0.199467 0.102599 0.974519
vn 0.199467 0.102599 0.974519
vn -0.161916 0.005658 0.986788
vn -0.161916 0.005658 0.986788
vn -0.161916 0.005658 0.986788
vn 0.876417 -0.052524 0.478681
vn 0.876417 -0.052524 0.478681
vn 0.876417 -0.052524 0.478681
vn 0.928269 -0.161047 0.335233
vn 0.928269 -0.161047 0.335233
vn 0.928269 -0.161047 0.335233
vn 0.761365 0.384747 -0.521817
vn 0.761365 0.384747 -0.521817
vn 0.761365 0.384747 -0.521817
vn 0.638858 0.668497 -0.380754
vn 0.638857 0.668497 -0.380754
vn 0.638857 0.668497 -0.380754
vn -0.892993 0.168972 -0.417148
vn -0.892993 0.168972 -0.417148
vn -0.892993 0.168972 -0.417148
vn -0.614243 -0.380116 -0.691533
vn -0.614243 -0.380116 -0.691533
vn -0.614243 -0.380116 -0.691533
vn -0.140157 -0.000249 -0.990129
vn -0.140157 -0.000249 -0.990129
vn -0.140157 -0.000249 -0.990129
vn -0.335024 0.449548 -0.828049
vn -0.335024 0.449548 -0.828049
vn -0.335024 0.449548 -0.828049
vn -0.075164 -0.997094 0.012428
vn -0.075164 -0.997094 0.012428
vn -0.075164 -0.997094 0.012428
vn 0.345929 -0.915656 -0.204712
vn 0.345929 -0.915656 -0.204711
vn 0.345929 -0.915656 -0.204711
vn -0.012577 -0.998411 -0.054923
vn -0.012577 -0.998411 -0.054923
vn -0.012577 -0.998411 -0.054923
vn -0.912971 -0.398173 0.089114
vn -0.912971 -0.398173 0.089114
vn -0.912972 -0.398173 0.089114
vn -0.483190 0.859137 -0.168557
vn -0.483190 0.859137 -0.168557
vn -0.483190 0.859137 -0.168557
vn -0.464704 0.867382 -0.178039
vn -0.464704 0.867382 -0.178039
vn -0.464704 0.867382 -0.178039
vn -0.432136 0.867521 -0.246306
vn -0.432136 0.867521 -0.246306
vn -0.432136 0.867521 -0.246306
vn 0.462538 0.032810 -0.885992
vn 0.462538 0.032810 -0.885992
vn 0.462538 0.032810 -0.885992
vn 0.075071 0.786088 -0.613538
vn 0.075071 0.786088 -0.613538
vn 0.075071 0.786088 -0.613538
vn 0.469103 -0.643411 0.604950
vn 0.469103 -0.643411 0.604950
vn 0.469103 -0.643411 0.604950
vn 0.469097 -0.643404 0.604962
vn 0.469097 -0.643404 0.604962
vn 0.469097 -0.643404 0.604962
s off
g Big_Snowball_Crystal:Big_Snowball_Crystal_0
usemtl aiStandardSurface13SG
f 3/1/1 2/2/2 1/3/3
f 6/64/4 5/5/5 4/6/6
f 9/7/7 8/8/8 7/9/9
f 12/65/10 11/11/11 10/12/12
f 14/13/13 13/14/14 10/12/15
f 15/15/16 14/13/17 10/12/18
f 17/16/19 16/17/20 10/12/21
f 19/18/22 18/19/23 13/14/24
f 22/69/25 21/21/26 20/22/27
f 21/71/28 24/23/29 23/24/30
f 7/9/31 26/25/32 25/26/33
f 28/27/34 23/70/35 27/68/36
f 22/69/37 29/29/38 16/17/39
f 17/16/40 22/69/41 16/17/42
f 30/30/43 22/20/44 17/67/45
f 33/31/46 32/32/47 31/33/48
f 25/26/49 33/31/50 31/33/51
f 27/28/52 35/34/53 34/66/54
f 16/17/55 20/22/56 19/18/57
f 31/33/58 36/36/59 17/67/60
f 12/10/61 31/33/62 17/67/63
f 37/37/64 7/9/65 25/26/66
f 9/7/67 7/9/68 37/37/69
f 1/3/70 34/35/71 38/62/72
f 13/14/73 18/19/74 2/2/75
f 12/65/76 10/12/77 39/39/78
f 40/40/79 12/65/80 39/39/81
f 41/41/82 31/33/83 12/10/84
f 6/4/85 37/37/86 40/63/87
f 9/7/88 37/37/89 4/61/90
f 42/42/91 13/14/92 2/2/93
f 3/1/94 42/42/95 2/2/96
f 38/38/97 9/7/98 4/61/99
f 3/1/100 38/62/101 4/6/102
f 5/5/103 3/1/104 4/6/105
f 43/43/106 38/62/107 3/1/108
f 27/28/109 45/44/110 44/45/111
f 24/23/112 21/71/113 46/46/114
f 47/47/115 22/20/116 30/30/117
f 21/71/118 22/20/119 47/47/120
f 46/46/121 21/71/122 47/47/123
f 26/25/124 48/48/125 33/31/126
f 25/26/127 26/25/128 33/31/129
f 33/31/130 48/48/131 49/49/132
f 51/50/133 50/51/134 9/7/135
f 51/50/136 9/7/137 38/38/138
f 34/66/139 35/34/140 52/52/141
f 53/53/142 34/66/143 52/52/144
f 52/52/145 35/34/146 50/51/147
f 51/50/148 38/38/149 34/66/150
f 53/53/151 51/50/152 34/66/153
f 23/70/154 28/27/155 54/54/156
f 54/54/157 28/27/158 18/19/159
f 45/44/160 27/28/161 23/24/162
f 16/17/163 19/18/164 14/13/165
f 15/15/166 16/17/167 14/13/168
f 15/15/169 10/12/170 16/17/171
f 14/13/172 19/18/173 13/14/174
f 55/55/175 42/42/176 3/1/177
f 39/39/178 42/42/179 55/55/180
f 37/37/181 56/56/182 40/63/183
f 56/56/184 37/37/185 41/41/186
f 56/56/187 41/41/188 12/10/189
f 40/63/190 56/56/191 12/10/192
f 57/57/193 23/24/194 24/23/195
f 49/49/196 57/57/197 24/23/198
f 50/51/199 45/44/200 49/49/201
f 6/4/202 4/61/203 37/37/204
f 31/33/205 37/37/206 25/26/207
f 13/14/208 42/42/209 39/39/210
f 10/12/211 13/14/212 39/39/213
f 58/58/214 2/2/215 18/19/216
f 1/3/217 2/2/218 58/58/219
f 28/27/220 27/68/221 59/59/222
f 60/60/223 21/21/224 54/54/225
f 6/64/226 40/40/227 5/5/228
f 46/46/229 47/47/230 24/23/231
f 26/25/232 7/9/233 50/51/234
f 50/51/235 7/9/236 8/8/237
f 1/3/238 58/58/239 34/35/240
f 59/59/241 27/68/242 34/35/243
f 58/58/244 18/19/245 59/59/246
f 53/53/247 52/52/248 51/50/249
f 60/60/250 20/22/251 21/21/252
f 19/18/253 20/22/254 60/60/255
f 19/18/256 60/60/257 18/19/258
f 57/57/259 45/44/260 23/24/261
f 49/49/262 45/44/263 57/57/264
f 50/51/265 35/34/266 27/28/267
f 44/45/268 50/51/269 27/28/270
f 44/45/271 45/44/272 50/51/273
f 32/32/274 30/30/275 31/33/276
f 33/31/277 30/30/278 32/32/279
f 26/25/280 50/51/281 48/48/282
f 48/48/283 50/51/284 49/49/285
f 9/7/286 50/51/287 8/8/288
f 51/50/289 52/52/290 50/51/291
f 34/35/292 58/58/293 59/59/294
f 59/59/295 18/19/296 28/27/297
f 18/19/298 60/60/299 54/54/300
f 54/54/301 21/21/302 23/70/303
f 36/36/304 31/33/305 30/30/306
f 11/11/307 12/65/308 17/16/309
f 10/12/310 11/11/311 17/16/312
f 17/67/313 36/36/314 30/30/315
f 39/39/316 55/55/317 3/1/318
f 5/5/319 39/39/320 3/1/321
f 5/5/322 40/40/323 39/39/324
f 41/41/325 37/37/326 31/33/327
f 24/23/328 30/30/329 49/49/330
f 49/49/331 30/30/332 33/31/333
f 24/23/334 47/47/335 30/30/336
f 29/29/337 20/22/338 16/17/339
f 22/69/340 20/22/341 29/29/342
f 43/43/343 1/3/344 38/62/345
f 3/1/346 1/3/347 43/43/348
